<svg width="428" height="499" viewBox="0 0 428 499" fill="none" xmlns="http://www.w3.org/2000/svg">
<mask id="mask0_156_901" style="mask-type:alpha" maskUnits="userSpaceOnUse" x="0" y="0" width="428" height="499">
<rect width="428" height="499" fill="#D9D9D9"/>
</mask>
<g mask="url(#mask0_156_901)">
<rect width="515.65" height="469.99" rx="48" transform="matrix(0.537575 0.843216 -0.848528 0.529151 167.8 -167)" fill="url(#paint0_linear_156_901)"/>
<g opacity="0.24">
<path d="M60.2354 331.892L55.3104 319.168C54.7108 317.618 53.2408 316.587 51.6038 316.567C49.9669 316.547 48.4934 317.543 47.8875 319.08L42.9166 331.687C42.4339 332.911 43.3244 334.254 44.6289 334.269C45.1491 334.275 45.6461 334.059 45.9967 333.671L48.7543 330.629C49.4715 329.837 50.4885 329.393 51.554 329.406C52.6097 329.418 53.6158 329.878 54.3297 330.674L57.148 333.814C57.4966 334.202 57.9884 334.427 58.5044 334.434L58.5132 334.434C59.8176 334.449 60.7127 333.126 60.2354 331.892Z" fill="#FFFF00"/>
<path fill-rule="evenodd" clip-rule="evenodd" d="M4.64512 241.664L4.52001 243.441L7.4615 243.663L7.56781 241.884L4.64512 241.664Z" fill="#FFFF00"/>
<path fill-rule="evenodd" clip-rule="evenodd" d="M-0.587813 241.176L-0.751562 242.949C0.227192 243.052 1.20791 243.137 2.18713 243.231L2.32979 241.454C1.35621 241.361 0.383415 241.279 -0.587813 241.176Z" fill="#FFFF00"/>
<path fill-rule="evenodd" clip-rule="evenodd" d="M20.4119 242.516L20.3766 244.299L21.8485 244.345C22.3392 244.361 22.8291 244.367 23.3201 244.379L23.3424 242.596C22.8537 242.585 22.3649 242.579 21.8763 242.563L20.4119 242.516Z" fill="#FFFF00"/>
<path fill-rule="evenodd" clip-rule="evenodd" d="M15.1581 242.319L15.0978 244.101C16.0787 244.141 17.0606 244.193 18.042 244.224L18.0871 242.442C17.1101 242.411 16.1336 242.359 15.1581 242.319Z" fill="#FFFF00"/>
<path fill-rule="evenodd" clip-rule="evenodd" d="M9.92617 242.041L9.83511 243.821L12.7792 243.994L12.8516 242.214L9.92617 242.041Z" fill="#FFFF00"/>
<path fill-rule="evenodd" clip-rule="evenodd" d="M36.2073 242.727L36.2253 244.511L39.1633 244.506L39.1409 242.722L36.2073 242.727Z" fill="#FFFF00"/>
<path fill-rule="evenodd" clip-rule="evenodd" d="M30.9469 242.709L30.952 244.493L33.8922 244.505L33.8796 242.721L30.9469 242.709Z" fill="#FFFF00"/>
<path fill-rule="evenodd" clip-rule="evenodd" d="M25.7059 242.641L25.6924 244.424C26.6734 244.449 27.6541 244.454 28.6339 244.466L28.6366 242.683C27.6611 242.671 26.6836 242.665 25.7059 242.641Z" fill="#FFFF00"/>
<path d="M52.0127 242.632L52.0439 244.415L54.9796 244.392L54.9484 242.608L52.0127 242.632Z" fill="#FFFF00"/>
<path fill-rule="evenodd" clip-rule="evenodd" d="M46.7524 242.68L46.7824 244.463L49.7182 244.441L49.6872 242.658L46.7524 242.68Z" fill="#FFFF00"/>
<path fill-rule="evenodd" clip-rule="evenodd" d="M41.5076 242.713L41.5332 244.497L44.47 244.48L44.4413 242.697L41.5076 242.713Z" fill="#FFFF00"/>
<path d="M67.8262 242.506L67.8574 244.289L70.7931 244.266L70.7619 242.482L67.8262 242.506Z" fill="#FFFF00"/>
<path d="M62.5616 242.547L62.5928 244.331L65.5285 244.307L65.4973 242.524L62.5616 242.547Z" fill="#FFFF00"/>
<path d="M57.3145 242.59L57.3457 244.373L60.2814 244.35L60.2501 242.567L57.3145 242.59Z" fill="#FFFF00"/>
<path d="M83.6392 242.379L83.6704 244.163L86.6061 244.139L86.5749 242.356L83.6392 242.379Z" fill="#FFFF00"/>
<path d="M78.375 242.421L78.4062 244.205L81.342 244.181L81.3107 242.398L78.375 242.421Z" fill="#FFFF00"/>
<path d="M73.128 242.463L73.1592 244.246L76.0949 244.223L76.0637 242.439L73.128 242.463Z" fill="#FFFF00"/>
<path d="M99.4507 242.254L99.4819 244.037L102.418 244.014L102.386 242.23L99.4507 242.254Z" fill="#FFFF00"/>
<path d="M94.1875 242.296L94.2188 244.079L97.1545 244.055L97.1232 242.272L94.1875 242.296Z" fill="#FFFF00"/>
<path d="M88.941 242.337L88.9722 244.12L91.9079 244.097L91.8767 242.314L88.941 242.337Z" fill="#FFFF00"/>
<path d="M115.261 242.126L115.292 243.909L118.228 243.886L118.196 242.102L115.261 242.126Z" fill="#FFFF00"/>
<path d="M110 242.169L110.031 243.953L112.967 243.929L112.936 242.146L110 242.169Z" fill="#FFFF00"/>
<path d="M104.753 242.211L104.784 243.994L107.72 243.971L107.689 242.188L104.753 242.211Z" fill="#FFFF00"/>
<path fill-rule="evenodd" clip-rule="evenodd" d="M131.083 242.014L131.111 243.797L134.043 243.781L134.02 241.998L131.083 242.014Z" fill="#FFFF00"/>
<path fill-rule="evenodd" clip-rule="evenodd" d="M125.817 242.051L125.849 243.835L128.783 243.813L128.753 242.029L125.817 242.051Z" fill="#FFFF00"/>
<path d="M120.562 242.083L120.593 243.866L123.529 243.843L123.498 242.06L120.562 242.083Z" fill="#FFFF00"/>
<path fill-rule="evenodd" clip-rule="evenodd" d="M146.915 242.086L146.896 243.869C147.872 243.893 148.847 243.91 149.823 243.939L149.856 242.157C148.876 242.127 147.895 242.111 146.915 242.086Z" fill="#FFFF00"/>
<path fill-rule="evenodd" clip-rule="evenodd" d="M141.642 242.01L141.645 243.793L144.573 243.828L144.581 242.045L141.642 242.01Z" fill="#FFFF00"/>
<path fill-rule="evenodd" clip-rule="evenodd" d="M136.389 241.994L136.408 243.778L137.873 243.776L139.338 243.782L139.327 241.998L137.858 241.992L136.389 241.994Z" fill="#FFFF00"/>
<path fill-rule="evenodd" clip-rule="evenodd" d="M162.753 242.849L162.63 244.626L164.087 244.746L164.814 244.806L165.541 244.88L165.689 243.105L164.956 243.03L164.222 242.969L162.753 242.849Z" fill="#FFFF00"/>
<path fill-rule="evenodd" clip-rule="evenodd" d="M157.483 242.48L157.402 244.261L160.32 244.448L160.422 242.668L157.483 242.48Z" fill="#FFFF00"/>
<path fill-rule="evenodd" clip-rule="evenodd" d="M152.226 242.238L152.178 244.021C152.665 244.04 153.153 244.051 153.64 244.076L155.1 244.147L155.166 242.365L153.696 242.294C153.207 242.268 152.716 242.257 152.226 242.238Z" fill="#FFFF00"/>
<path fill-rule="evenodd" clip-rule="evenodd" d="M178.518 244.832L178.232 246.59L179.67 246.841C180.148 246.927 180.623 247.032 181.1 247.127L181.422 245.378C180.939 245.282 180.458 245.176 179.973 245.088L178.518 244.832Z" fill="#FFFF00"/>
<path fill-rule="evenodd" clip-rule="evenodd" d="M173.288 243.999L173.063 245.766L175.95 246.195L176.208 244.433L173.288 243.999Z" fill="#FFFF00"/>
<path fill-rule="evenodd" clip-rule="evenodd" d="M168.054 243.347L167.884 245.119L168.61 245.194L169.334 245.286L170.783 245.465L170.983 243.696L169.52 243.513L168.787 243.423L168.054 243.347Z" fill="#FFFF00"/>
<path fill-rule="evenodd" clip-rule="evenodd" d="M194.007 248.563L193.499 250.265C193.961 250.415 194.426 250.556 194.887 250.711L196.268 251.18L196.823 249.494L195.418 249.017C194.949 248.859 194.477 248.715 194.007 248.563Z" fill="#FFFF00"/>
<path fill-rule="evenodd" clip-rule="evenodd" d="M188.903 247.086L188.477 248.812L189.182 248.996L189.884 249.192C190.352 249.326 190.822 249.449 191.287 249.59L191.758 247.876C191.285 247.733 190.808 247.607 190.332 247.472L189.619 247.272L188.903 247.086Z" fill="#FFFF00"/>
<path fill-rule="evenodd" clip-rule="evenodd" d="M183.758 245.853L183.405 247.597C184.355 247.808 185.3 248.038 186.247 248.258L186.639 246.524C185.679 246.301 184.72 246.067 183.758 245.853Z" fill="#FFFF00"/>
<path fill-rule="evenodd" clip-rule="evenodd" d="M208.827 254.544L208.06 256.141C208.495 256.358 208.931 256.575 209.36 256.805C209.789 257.033 210.222 257.256 210.65 257.488L211.468 255.917C211.031 255.681 210.591 255.453 210.152 255.222C209.714 254.986 209.27 254.765 208.827 254.544Z" fill="#FFFF00"/>
<path fill-rule="evenodd" clip-rule="evenodd" d="M203.996 252.287L203.317 253.926C203.541 254.019 203.764 254.117 203.986 254.219L204.651 254.518L205.317 254.817C205.538 254.919 205.756 255.025 205.977 255.128L206.704 253.512C206.48 253.406 206.256 253.298 206.032 253.194L205.354 252.89L204.677 252.585C204.45 252.482 204.223 252.383 203.996 252.287Z" fill="#FFFF00"/>
<path fill-rule="evenodd" clip-rule="evenodd" d="M199.073 250.303L198.48 251.976L199.843 252.496C200.298 252.668 200.746 252.857 201.198 253.037L201.837 251.382C201.377 251.198 200.921 251.006 200.458 250.831L199.073 250.303Z" fill="#FFFF00"/>
<path fill-rule="evenodd" clip-rule="evenodd" d="M222.455 263.002L221.406 264.423C221.799 264.712 222.174 265.021 222.557 265.322L223.13 265.775C223.321 265.925 223.505 266.085 223.692 266.24L224.796 264.862C224.604 264.703 224.415 264.539 224.219 264.386L223.633 263.921C223.241 263.615 222.856 263.297 222.455 263.002Z" fill="#FFFF00"/>
<path fill-rule="evenodd" clip-rule="evenodd" d="M218.094 259.894L217.142 261.384C217.946 261.932 218.757 262.472 219.542 263.047L220.548 261.594C219.744 261.006 218.916 260.454 218.094 259.894Z" fill="#FFFF00"/>
<path fill-rule="evenodd" clip-rule="evenodd" d="M213.56 257.092L212.702 258.639L213.962 259.377L215.206 260.141L216.117 258.625L214.847 257.845C214.419 257.591 213.988 257.343 213.56 257.092Z" fill="#FFFF00"/>
<path fill-rule="evenodd" clip-rule="evenodd" d="M234.113 274.117L232.773 275.258L233.692 276.393C233.847 276.581 233.993 276.775 234.141 276.969L234.583 277.55L235.975 276.474L235.52 275.876C235.369 275.677 235.218 275.477 235.058 275.284L234.113 274.117Z" fill="#FFFF00"/>
<path fill-rule="evenodd" clip-rule="evenodd" d="M230.51 270.12L229.265 271.368C229.602 271.72 229.944 272.066 230.276 272.422L231.26 273.502L232.559 272.312L231.549 271.204C231.206 270.837 230.855 270.482 230.51 270.12Z" fill="#FFFF00"/>
<path fill-rule="evenodd" clip-rule="evenodd" d="M226.629 266.431L225.482 267.771L226.03 268.254C226.212 268.415 226.388 268.585 226.567 268.749C226.922 269.082 227.284 269.409 227.634 269.747L228.835 268.457C228.476 268.11 228.105 267.776 227.741 267.433C227.557 267.264 227.378 267.091 227.19 266.927L226.629 266.431Z" fill="#FFFF00"/>
<path fill-rule="evenodd" clip-rule="evenodd" d="M242.715 287.806L241.114 288.528C241.307 288.974 241.51 289.417 241.696 289.867L242.236 291.223L243.873 290.589L243.315 289.189C243.123 288.725 242.915 288.267 242.715 287.806Z" fill="#FFFF00"/>
<path fill-rule="evenodd" clip-rule="evenodd" d="M240.277 282.982L238.755 283.86L239.117 284.493C239.234 284.705 239.344 284.923 239.457 285.137L239.797 285.782C239.908 285.998 240.027 286.21 240.129 286.431L241.697 285.639C241.592 285.412 241.468 285.192 241.354 284.968L241.004 284.301C240.886 284.078 240.772 283.855 240.652 283.635L240.277 282.982Z" fill="#FFFF00"/>
<path fill-rule="evenodd" clip-rule="evenodd" d="M237.402 278.433L235.97 279.453C236.114 279.65 236.248 279.853 236.383 280.055L236.789 280.663L237.195 281.27L237.579 281.889L239.06 280.943L238.662 280.303L238.244 279.677L237.826 279.052C237.688 278.845 237.55 278.635 237.402 278.433Z" fill="#FFFF00"/>
<path fill-rule="evenodd" clip-rule="evenodd" d="M247.181 303.365L245.44 303.599C245.59 304.561 245.674 305.53 245.777 306.497L247.529 306.359C247.423 305.36 247.336 304.358 247.181 303.365Z" fill="#FFFF00"/>
<path fill-rule="evenodd" clip-rule="evenodd" d="M246.183 298.054L244.474 298.455C244.598 298.926 244.687 299.404 244.79 299.879C244.891 300.356 244.997 300.831 245.074 301.312L246.803 301.003C246.723 300.507 246.613 300.016 246.511 299.525C246.402 299.034 246.311 298.54 246.183 298.054Z" fill="#FFFF00"/>
<path fill-rule="evenodd" clip-rule="evenodd" d="M244.701 292.874L243.038 293.436L243.484 294.827L243.595 295.175L243.695 295.526L243.894 296.229L245.585 295.757L245.379 295.031L245.276 294.668L245.162 294.31L244.701 292.874Z" fill="#FFFF00"/>
<path fill-rule="evenodd" clip-rule="evenodd" d="M247.051 319.531L245.317 319.218C245.251 319.698 245.147 320.17 245.056 320.644L244.916 321.355L244.88 321.532L244.838 321.708L244.754 322.06L246.467 322.482L246.554 322.117L246.598 321.933L246.634 321.749L246.78 321.011C246.874 320.518 246.981 320.028 247.051 319.531Z" fill="#FFFF00"/>
<path fill-rule="evenodd" clip-rule="evenodd" d="M247.65 314.166L245.895 314.045C245.819 315.01 245.763 315.979 245.636 316.939L247.382 317.165C247.513 316.169 247.572 315.167 247.65 314.166Z" fill="#FFFF00"/>
<path fill-rule="evenodd" clip-rule="evenodd" d="M247.682 308.784L245.925 308.842L245.973 310.299L245.969 311.754L247.727 311.795L247.731 310.289L247.682 308.784Z" fill="#FFFF00"/>
<path fill-rule="evenodd" clip-rule="evenodd" d="M241.673 334.708L240.158 333.787L239.412 335.011C239.293 335.219 239.15 335.41 239.018 335.61L238.616 336.203L240.06 337.235L240.481 336.615C240.618 336.406 240.767 336.205 240.893 335.989L241.673 334.708Z" fill="#FFFF00"/>
<path fill-rule="evenodd" clip-rule="evenodd" d="M244.077 329.895L242.46 329.179L242.175 329.84C242.077 330.059 241.991 330.284 241.881 330.497L241.251 331.789L242.815 332.619L243.472 331.27C243.586 331.047 243.677 330.813 243.778 330.584L244.077 329.895Z" fill="#FFFF00"/>
<path fill-rule="evenodd" clip-rule="evenodd" d="M245.859 324.831L244.17 324.318L243.973 325.014C243.907 325.245 243.825 325.471 243.752 325.701L243.525 326.386L243.412 326.729L243.355 326.9L243.291 327.069L244.943 327.695L245.011 327.519L245.07 327.341L245.187 326.984L245.423 326.27C245.5 326.031 245.586 325.796 245.654 325.555L245.859 324.831Z" fill="#FFFF00"/>
<path fill-rule="evenodd" clip-rule="evenodd" d="M231.086 346.702L229.992 345.294L229.714 345.522L229.427 345.737L228.852 346.169L228.277 346.6C228.181 346.671 228.086 346.746 227.989 346.815L227.693 347.02L228.711 348.484L229.016 348.273C229.117 348.201 229.214 348.126 229.314 348.052L229.908 347.606L230.502 347.16L230.798 346.937L231.086 346.702Z" fill="#FFFF00"/>
<path fill-rule="evenodd" clip-rule="evenodd" d="M235.077 343.158L233.841 341.877C233.498 342.21 233.161 342.55 232.813 342.877L231.743 343.832L232.899 345.188L234.009 344.196C234.37 343.858 234.721 343.505 235.077 343.158Z" fill="#FFFF00"/>
<path fill-rule="evenodd" clip-rule="evenodd" d="M238.633 339.182L237.254 338.063L237.147 338.207L237.032 338.344L236.802 338.618L236.343 339.168L235.883 339.718C235.809 339.811 235.726 339.897 235.645 339.985L235.402 340.247L236.702 341.461L236.955 341.188C237.04 341.096 237.127 341.007 237.204 340.91L237.684 340.337L238.164 339.763L238.403 339.476L238.523 339.332L238.633 339.182Z" fill="#FFFF00"/>
<path fill-rule="evenodd" clip-rule="evenodd" d="M217.457 354.918L216.711 353.296L215.392 353.897L215.062 354.048L214.73 354.191L214.063 354.478L214.764 356.12L215.442 355.829L215.78 355.683L216.116 355.53L217.457 354.918Z" fill="#FFFF00"/>
<path fill-rule="evenodd" clip-rule="evenodd" d="M222.188 352.533L221.342 350.961C221.132 351.076 220.923 351.197 220.709 351.307L220.067 351.639C219.638 351.859 219.213 352.086 218.781 352.3L219.569 353.902C220.01 353.684 220.445 353.451 220.883 353.227L221.538 352.887C221.757 352.774 221.971 352.651 222.188 352.533Z" fill="#FFFF00"/>
<path fill-rule="evenodd" clip-rule="evenodd" d="M226.733 349.826L225.773 348.323L224.559 349.1L223.32 349.839L224.214 351.383L225.485 350.625L226.733 349.826Z" fill="#FFFF00"/>
<path fill-rule="evenodd" clip-rule="evenodd" d="M202.648 360.602L202.118 358.897C201.198 359.194 200.267 359.449 199.339 359.721L199.821 361.441C200.765 361.165 201.713 360.903 202.648 360.602Z" fill="#FFFF00"/>
<path fill-rule="evenodd" clip-rule="evenodd" d="M207.657 358.922L207.054 357.241C206.14 357.56 205.229 357.893 204.309 358.191L204.873 359.885C205.808 359.582 206.731 359.245 207.657 358.922Z" fill="#FFFF00"/>
<path fill-rule="evenodd" clip-rule="evenodd" d="M212.572 357.037L211.904 355.381C211.011 355.753 210.103 356.092 209.201 356.445L209.831 358.116C210.746 357.759 211.666 357.415 212.572 357.037Z" fill="#FFFF00"/>
<path fill-rule="evenodd" clip-rule="evenodd" d="M187.107 363.907L186.917 362.133L185.483 362.256L185.125 362.287C185.005 362.295 184.886 362.3 184.765 362.306L184.047 362.343L184.152 364.124L184.892 364.086C185.015 364.079 185.139 364.075 185.262 364.066L185.631 364.034L187.107 363.907Z" fill="#FFFF00"/>
<path fill-rule="evenodd" clip-rule="evenodd" d="M192.359 363.161L192.035 361.405L191.325 361.535C191.088 361.579 190.85 361.61 190.613 361.648L189.187 361.865L189.439 363.633L190.902 363.409C191.145 363.37 191.39 363.338 191.632 363.293L192.359 363.161Z" fill="#FFFF00"/>
<path fill-rule="evenodd" clip-rule="evenodd" d="M197.521 362.048L197.084 360.317C196.146 360.539 195.21 360.776 194.267 360.965L194.644 362.711C195.609 362.517 196.563 362.275 197.521 362.048Z" fill="#FFFF00"/>
<path fill-rule="evenodd" clip-rule="evenodd" d="M171.173 363.148L171.528 361.404C170.593 361.206 169.669 360.959 168.749 360.699L168.28 362.413C169.237 362.684 170.2 362.942 171.173 363.148Z" fill="#FFFF00"/>
<path fill-rule="evenodd" clip-rule="evenodd" d="M176.454 363.975L176.602 362.2C175.652 362.115 174.705 361.981 173.762 361.833L173.498 363.594C174.48 363.748 175.465 363.887 176.454 363.975Z" fill="#FFFF00"/>
<path fill-rule="evenodd" clip-rule="evenodd" d="M181.76 364.194L181.729 362.411L181.011 362.42L180.293 362.402C179.814 362.387 179.335 362.382 178.857 362.361L178.791 364.142C179.286 364.164 179.78 364.17 180.276 364.184L181.019 364.204L181.76 364.194Z" fill="#FFFF00"/>
<path fill-rule="evenodd" clip-rule="evenodd" d="M156.432 356.805L157.422 355.341C156.636 354.798 155.883 354.208 155.148 353.599L154.036 354.969C154.811 355.614 155.605 356.234 156.432 356.805Z" fill="#FFFF00"/>
<path fill-rule="evenodd" clip-rule="evenodd" d="M161.058 359.573L161.832 357.979C160.975 357.552 160.145 357.077 159.325 356.587L158.431 358.113C159.291 358.629 160.162 359.127 161.058 359.573Z" fill="#FFFF00"/>
<path fill-rule="evenodd" clip-rule="evenodd" d="M165.983 361.674L166.546 359.99C165.642 359.679 164.755 359.318 163.875 358.942L163.196 360.58C164.114 360.973 165.04 361.348 165.983 361.674Z" fill="#FFFF00"/>
<path fill-rule="evenodd" clip-rule="evenodd" d="M146.024 344.425L147.672 343.82C147.35 342.946 147.1 342.041 146.913 341.123L145.191 341.466C145.395 342.469 145.67 343.46 146.024 344.425Z" fill="#FFFF00"/>
<path fill-rule="evenodd" clip-rule="evenodd" d="M148.668 349.251L150.079 348.201C149.79 347.821 149.533 347.419 149.263 347.026C149.011 346.642 148.78 346.246 148.565 345.838L147.016 346.667C147.257 347.123 147.518 347.57 147.801 348.003C148.088 348.419 148.362 348.846 148.668 349.251Z" fill="#FFFF00"/>
<path fill-rule="evenodd" clip-rule="evenodd" d="M152.224 353.337L153.432 352.054C153.085 351.727 152.759 351.378 152.425 351.036C152.262 350.863 152.104 350.683 151.943 350.506L151.703 350.241L151.472 349.968L150.147 351.127L150.392 351.417L150.646 351.699C150.817 351.886 150.983 352.076 151.157 352.259C151.51 352.622 151.856 352.991 152.224 353.337Z" fill="#FFFF00"/>
<path fill-rule="evenodd" clip-rule="evenodd" d="M147.218 328.408L148.63 329.49C149.121 328.79 149.72 328.164 150.417 327.672L149.42 326.178C148.562 326.781 147.824 327.548 147.218 328.408Z" fill="#FFFF00"/>
<path fill-rule="evenodd" clip-rule="evenodd" d="M145.119 333.541L146.843 333.911C147.021 333.007 147.281 332.129 147.632 331.304L146.016 330.584C145.612 331.54 145.318 332.533 145.119 333.541Z" fill="#FFFF00"/>
<path fill-rule="evenodd" clip-rule="evenodd" d="M144.84 339.015L146.592 338.88C146.511 337.946 146.503 337.008 146.56 336.079L144.806 335.944C144.743 336.968 144.752 337.995 144.84 339.015Z" fill="#FFFF00"/>
<path fill-rule="evenodd" clip-rule="evenodd" d="M162.175 327.247L161.288 328.777C162.106 329.27 162.915 329.804 163.732 330.35L164.69 328.865C163.868 328.314 163.036 327.766 162.175 327.247Z" fill="#FFFF00"/>
<path fill-rule="evenodd" clip-rule="evenodd" d="M157.204 325.002L156.776 326.727C157.636 326.953 158.486 327.291 159.322 327.698L160.07 326.092C159.157 325.648 158.203 325.266 157.204 325.002Z" fill="#FFFF00"/>
<path fill-rule="evenodd" clip-rule="evenodd" d="M151.674 325.054L152.252 326.758C152.657 326.628 153.074 326.537 153.496 326.48L153.813 326.446C153.919 326.435 154.025 326.435 154.132 326.429L154.451 326.414C154.557 326.414 154.663 326.422 154.77 326.424L154.769 324.637C154.638 324.634 154.506 324.625 154.376 324.627L153.983 324.644C153.853 324.652 153.722 324.653 153.592 324.666L153.202 324.71C152.683 324.78 152.171 324.894 151.674 325.054Z" fill="#FFFF00"/>
<path fill-rule="evenodd" clip-rule="evenodd" d="M175.258 336.551L174.137 337.914C174.876 338.542 175.597 339.186 176.297 339.852L177.494 338.558C176.767 337.866 176.02 337.199 175.258 336.551Z" fill="#FFFF00"/>
<path fill-rule="evenodd" clip-rule="evenodd" d="M171.036 333.245L170.018 334.689C170.805 335.264 171.583 335.852 172.349 336.453L173.419 335.047C172.633 334.432 171.839 333.832 171.036 333.245Z" fill="#FFFF00"/>
<path fill-rule="evenodd" clip-rule="evenodd" d="M166.676 330.199L165.71 331.679C166.525 332.23 167.335 332.784 168.137 333.346L169.126 331.881C168.313 331.312 167.495 330.753 166.676 330.199Z" fill="#FFFF00"/>
<path fill-rule="evenodd" clip-rule="evenodd" d="M185.263 349.257L183.651 349.954C184.025 350.827 184.35 351.721 184.62 352.629L186.303 352.128C186.011 351.152 185.664 350.193 185.263 349.257Z" fill="#FFFF00"/>
<path fill-rule="evenodd" clip-rule="evenodd" d="M182.621 344.474L181.185 345.488C181.725 346.267 182.22 347.079 182.669 347.916L184.211 347.075C183.731 346.18 183.201 345.31 182.621 344.474Z" fill="#FFFF00"/>
<path fill-rule="evenodd" clip-rule="evenodd" d="M179.205 340.282L177.938 341.505L178.429 342.033C178.512 342.12 178.592 342.21 178.669 342.302L178.905 342.575L179.375 343.12C179.456 343.209 179.531 343.303 179.604 343.397L179.827 343.679L181.188 342.564L180.952 342.267C180.875 342.167 180.795 342.069 180.712 341.975L180.219 341.402L179.972 341.116C179.891 341.02 179.808 340.926 179.72 340.834L179.205 340.282Z" fill="#FFFF00"/>
<path fill-rule="evenodd" clip-rule="evenodd" d="M186.154 365.36L184.515 364.699C184.185 365.554 183.782 366.374 183.295 367.146L184.785 368.108C185.33 367.243 185.786 366.317 186.154 365.36Z" fill="#FFFF00"/>
<path fill-rule="evenodd" clip-rule="evenodd" d="M187.285 359.978L185.529 359.857C185.475 360.787 185.349 361.709 185.147 362.608L186.861 363.023C187.087 362.021 187.225 361.001 187.285 359.978Z" fill="#FFFF00"/>
<path fill-rule="evenodd" clip-rule="evenodd" d="M186.894 354.522L185.169 354.85C185.349 355.777 185.471 356.712 185.526 357.649L187.281 357.56C187.22 356.539 187.088 355.524 186.894 354.522Z" fill="#FFFF00"/>
<path fill-rule="evenodd" clip-rule="evenodd" d="M174.893 376.639L174.026 375.078C173.609 375.316 173.184 375.545 172.761 375.777L171.476 376.452L172.294 378.038L173.599 377.353C174.031 377.119 174.463 376.883 174.893 376.639Z" fill="#FFFF00"/>
<path fill-rule="evenodd" clip-rule="evenodd" d="M179.388 373.763L178.338 372.323C177.581 372.883 176.796 373.415 175.987 373.92L176.919 375.442C177.76 374.915 178.585 374.358 179.388 373.763Z" fill="#FFFF00"/>
<path fill-rule="evenodd" clip-rule="evenodd" d="M183.339 370.103L181.995 368.94C181.403 369.646 180.746 370.303 180.053 370.926L181.222 372.269C181.971 371.596 182.688 370.881 183.339 370.103Z" fill="#FFFF00"/>
<path fill-rule="evenodd" clip-rule="evenodd" d="M160.513 383.358L159.875 381.689C159.423 381.862 158.973 382.038 158.519 382.206L157.153 382.695L157.749 384.379L159.137 383.883C159.596 383.712 160.053 383.533 160.513 383.358Z" fill="#FFFF00"/>
<path fill-rule="evenodd" clip-rule="evenodd" d="M165.4 381.347L164.689 379.71L163.359 380.29L162.016 380.841L162.686 382.497L164.049 381.937L165.4 381.347Z" fill="#FFFF00"/>
<path fill-rule="evenodd" clip-rule="evenodd" d="M170.174 379.118L169.389 377.515L168.088 378.157L166.772 378.77L167.517 380.393L168.852 379.771L170.174 379.118Z" fill="#FFFF00"/>
<path fill-rule="evenodd" clip-rule="evenodd" d="M145.35 388.017L144.939 386.28C144.468 386.388 143.998 386.505 143.525 386.607L142.104 386.906L142.473 388.654L143.914 388.35C144.395 388.245 144.872 388.127 145.35 388.017Z" fill="#FFFF00"/>
<path fill-rule="evenodd" clip-rule="evenodd" d="M150.467 386.698L149.981 384.979C149.515 385.109 149.05 385.246 148.583 385.37L147.177 385.732L147.622 387.463L149.049 387.095C149.523 386.967 149.994 386.829 150.467 386.698Z" fill="#FFFF00"/>
<path fill-rule="evenodd" clip-rule="evenodd" d="M155.502 385.152L154.94 383.457C154.48 383.608 154.023 383.765 153.562 383.91L152.174 384.336L152.695 386.044L154.103 385.611C154.571 385.464 155.035 385.304 155.502 385.152Z" fill="#FFFF00"/>
<path fill-rule="evenodd" clip-rule="evenodd" d="M129.691 390.578L129.51 388.803C129.028 388.846 128.547 388.901 128.064 388.935L126.615 389.042L126.753 390.821L128.223 390.714C128.714 390.678 129.202 390.622 129.691 390.578Z" fill="#FFFF00"/>
<path fill-rule="evenodd" clip-rule="evenodd" d="M134.942 389.961L134.684 388.195C134.204 388.26 133.726 388.336 133.245 388.393L131.802 388.563L132.018 390.335L133.481 390.162C133.97 390.103 134.455 390.027 134.942 389.961Z" fill="#FFFF00"/>
<path fill-rule="evenodd" clip-rule="evenodd" d="M140.141 389.111L139.807 387.357C139.33 387.444 138.857 387.54 138.379 387.619L136.946 387.854L137.238 389.615L138.692 389.376C139.176 389.297 139.658 389.199 140.141 389.111Z" fill="#FFFF00"/>
<path fill-rule="evenodd" clip-rule="evenodd" d="M113.815 391.006L113.869 389.224L113.143 389.195L112.78 389.182L112.417 389.16L110.966 389.07L110.868 390.849L112.341 390.94L112.709 390.962L113.078 390.977L113.815 391.006Z" fill="#FFFF00"/>
<path fill-rule="evenodd" clip-rule="evenodd" d="M119.108 391.103L119.083 389.32L118.357 389.324C118.115 389.326 117.872 389.327 117.631 389.321L116.177 389.297L116.158 391.08L117.633 391.105C117.88 391.111 118.125 391.11 118.371 391.107L119.108 391.103Z" fill="#FFFF00"/>
<path fill-rule="evenodd" clip-rule="evenodd" d="M124.379 390.961L124.276 389.18L123.551 389.217C123.31 389.231 123.067 389.242 122.825 389.247L121.372 389.288L121.431 391.071L122.906 391.029C123.152 391.023 123.396 391.012 123.642 390.998L124.379 390.961Z" fill="#FFFF00"/>
<path fill-rule="evenodd" clip-rule="evenodd" d="M98.0057 389.264L98.2988 387.509C97.3414 387.348 96.3912 387.145 95.4396 386.953L95.1017 388.7C96.0687 388.894 97.0336 389.099 98.0057 389.264Z" fill="#FFFF00"/>
<path fill-rule="evenodd" clip-rule="evenodd" d="M103.244 390.087L103.456 388.319C102.493 388.203 101.536 388.045 100.576 387.897L100.319 389.659C101.293 389.809 102.266 389.968 103.244 390.087Z" fill="#FFFF00"/>
<path fill-rule="evenodd" clip-rule="evenodd" d="M108.494 390.665L108.627 388.889C107.659 388.816 106.696 388.704 105.731 388.601L105.553 390.373C106.533 390.478 107.512 390.592 108.494 390.665Z" fill="#FFFF00"/>
<path fill-rule="evenodd" clip-rule="evenodd" d="M82.5689 385.259L83.1315 383.575C82.6745 383.413 82.2201 383.248 81.7642 383.08C81.3123 382.905 80.856 382.74 80.4081 382.558L79.7838 384.219C80.2434 384.406 80.7093 384.575 81.1716 384.754C81.6367 384.924 82.1017 385.094 82.5689 385.259Z" fill="#FFFF00"/>
<path fill-rule="evenodd" clip-rule="evenodd" d="M87.641 386.872L88.1029 385.156C87.169 384.892 86.2428 384.605 85.3177 384.313L84.8014 386.012C85.7454 386.311 86.69 386.603 87.641 386.872Z" fill="#FFFF00"/>
<path fill-rule="evenodd" clip-rule="evenodd" d="M92.7721 388.186L93.1463 386.448C92.6736 386.34 92.1976 386.236 91.7281 386.116L91.0206 385.942L90.3158 385.759L89.895 387.486L90.6123 387.672L91.331 387.849C91.8087 387.972 92.2914 388.076 92.7721 388.186Z" fill="#FFFF00"/>
<path fill-rule="evenodd" clip-rule="evenodd" d="M68.1434 378.267L69.0879 376.773C68.2839 376.237 67.4861 375.693 66.713 375.115L65.6849 376.552C66.4867 377.15 67.3121 377.713 68.1434 378.267Z" fill="#FFFF00"/>
<path fill-rule="evenodd" clip-rule="evenodd" d="M72.7613 380.993L73.5651 379.415C72.7093 378.965 71.8695 378.485 71.0373 377.993L70.1557 379.527C71.0156 380.033 71.8811 380.528 72.7613 380.993Z" fill="#FFFF00"/>
<path fill-rule="evenodd" clip-rule="evenodd" d="M77.5665 383.301L78.2437 381.662C77.8001 381.468 77.3558 381.276 76.9177 381.071L76.2589 380.766L75.6047 380.452L74.8584 382.059L75.5305 382.382L76.207 382.694C76.6558 382.904 77.112 383.101 77.5665 383.301Z" fill="#FFFF00"/>
<path fill-rule="evenodd" clip-rule="evenodd" d="M56.3088 367.298L57.7156 366.242C57.4368 365.851 57.1496 365.466 56.8878 365.062L56.4867 364.462L56.1049 363.85L54.6176 364.785L55.0183 365.428L55.4391 366.057C55.7144 366.481 56.0155 366.887 56.3088 367.298Z" fill="#FFFF00"/>
<path fill-rule="evenodd" clip-rule="evenodd" d="M59.8146 371.425L61.0641 370.182C60.8929 370.013 60.7326 369.832 60.5667 369.657C60.4026 369.479 60.2371 369.305 60.0749 369.127L59.597 368.584L59.3576 368.313C59.2794 368.222 59.204 368.128 59.128 368.037L57.7942 369.186C57.8747 369.283 57.9542 369.381 58.0363 369.476L58.2858 369.76L58.7844 370.326C58.9535 370.512 59.1261 370.694 59.2968 370.878C59.4683 371.061 59.6357 371.249 59.8146 371.425Z" fill="#FFFF00"/>
<path fill-rule="evenodd" clip-rule="evenodd" d="M63.7749 375.063L64.8719 373.68L64.3133 373.22L63.7663 372.746L63.4922 372.509L63.2246 372.267L62.69 371.779L61.5083 373.087L62.0639 373.594L62.3432 373.847L62.6267 374.093L63.1957 374.585L63.7749 375.063Z" fill="#FFFF00"/>
<path fill-rule="evenodd" clip-rule="evenodd" d="M49.7121 352.492L51.4338 352.146C51.3423 351.674 51.2445 351.204 51.1763 350.73C51.1397 350.493 51.0986 350.257 51.0659 350.018L50.9789 349.305L49.2326 349.494L49.3251 350.248C49.3592 350.499 49.4025 350.748 49.4408 350.998C49.5132 351.5 49.6148 351.996 49.7121 352.492Z" fill="#FFFF00"/>
<path fill-rule="evenodd" clip-rule="evenodd" d="M51.1941 357.724L52.8427 357.121C52.7562 356.896 52.685 356.666 52.6056 356.438C52.5294 356.211 52.4469 355.984 52.3757 355.754L52.1652 355.063L52.0601 354.718L51.9674 354.37L50.2735 354.833L50.3718 355.199L50.4825 355.562L50.703 356.288C50.7775 356.529 50.8643 356.767 50.9439 357.007C51.0288 357.246 51.1033 357.488 51.1941 357.724Z" fill="#FFFF00"/>
<path fill-rule="evenodd" clip-rule="evenodd" d="M53.4031 362.667L54.9485 361.831C54.4892 360.985 54.0813 360.112 53.6874 359.234L52.0806 359.942C52.4925 360.863 52.9217 361.779 53.4031 362.667Z" fill="#FFFF00"/>
<path fill-rule="evenodd" clip-rule="evenodd" d="M50.5578 336.345L52.2159 336.955C52.3617 336.506 52.545 336.072 52.7191 335.635C52.8015 335.415 52.9062 335.204 53.0028 334.99L53.2971 334.349L51.7208 333.543L51.4031 334.232C51.299 334.462 51.1875 334.689 51.0985 334.926C50.9115 335.397 50.7148 335.864 50.5578 336.345Z" fill="#FFFF00"/>
<path fill-rule="evenodd" clip-rule="evenodd" d="M49.2865 341.635L51.0276 341.898L51.1376 341.195C51.1564 341.078 51.1728 340.961 51.1937 340.843L51.2635 340.495L51.403 339.799C51.4551 339.568 51.5154 339.339 51.5711 339.11L49.8668 338.654C49.8067 338.9 49.7432 339.145 49.6877 339.393L49.5379 340.137L49.4632 340.51C49.4414 340.635 49.4233 340.76 49.403 340.886L49.2865 341.635Z" fill="#FFFF00"/>
<path fill-rule="evenodd" clip-rule="evenodd" d="M49.0407 347.054L50.7974 346.998L50.7808 346.64C50.7763 346.521 50.7784 346.401 50.776 346.282L50.7697 345.565C50.7673 345.326 50.7823 345.088 50.7864 344.849C50.7961 344.612 50.7946 344.372 50.8141 344.135L49.0585 344.016C49.0376 344.269 49.0395 344.522 49.0285 344.775C49.0228 345.028 49.0084 345.281 49.0105 345.535L49.0175 346.294C49.019 346.421 49.0184 346.548 49.0221 346.675L49.0407 347.054Z" fill="#FFFF00"/>
</g>
</g>
<defs>
<linearGradient id="paint0_linear_156_901" x1="200.965" y1="192.611" x2="652.15" y2="104.169" gradientUnits="userSpaceOnUse">
<stop stop-color="#252525"/>
<stop offset="1" stop-color="#2F2F2F" stop-opacity="0.73"/>
</linearGradient>
</defs>
</svg>
