<svg width="25" height="25" viewBox="0 0 25 25" fill="none" xmlns="http://www.w3.org/2000/svg">
<path fill-rule="evenodd" clip-rule="evenodd" d="M12.5 0C5.59646 0 0 5.59646 0 12.5C0 19.4035 5.59646 25 12.5 25C19.4035 25 25 19.4035 25 12.5C25 5.59646 19.4035 0 12.5 0ZM9.75172 5.87359C10.4628 5.84125 10.6901 5.83333 12.5006 5.83333H12.4985C14.3097 5.83333 14.536 5.84125 15.2472 5.87359C15.9569 5.90609 16.4416 6.01849 16.8667 6.18333C17.3055 6.35349 17.6764 6.58125 18.0472 6.95208C18.4181 7.32266 18.6458 7.69458 18.8167 8.13307C18.9806 8.55698 19.0931 9.04141 19.1264 9.75115C19.1583 10.4623 19.1667 10.6895 19.1667 12.5001C19.1667 14.3106 19.1583 14.5373 19.1264 15.2484C19.0931 15.9579 18.9806 16.4424 18.8167 16.8665C18.6458 17.3048 18.4181 17.6768 18.0472 18.0473C17.6768 18.4182 17.3054 18.6465 16.8671 18.8168C16.4429 18.9817 15.9579 19.094 15.2482 19.1265C14.537 19.1589 14.3105 19.1668 12.4998 19.1668C10.6894 19.1668 10.4623 19.1589 9.75115 19.1265C9.04156 19.094 8.55698 18.9817 8.13281 18.8168C7.69458 18.6465 7.32266 18.4182 6.95224 18.0473C6.58151 17.6768 6.35375 17.3048 6.18333 16.8664C6.01859 16.4424 5.90625 15.958 5.87359 15.2483C5.84141 14.5372 5.83333 14.3106 5.83333 12.5001C5.83333 10.6895 5.84167 10.4621 5.87349 9.75099C5.90542 9.04156 6.01792 8.55698 6.18318 8.13292C6.35401 7.69458 6.58182 7.32266 6.95266 6.95208C7.32323 6.58141 7.69516 6.35359 8.13365 6.18333C8.55755 6.01849 9.04198 5.90609 9.75172 5.87359Z" fill="#FFFF00"/>
<path fill-rule="evenodd" clip-rule="evenodd" d="M11.9024 7.03487C12.0185 7.03471 12.1435 7.03477 12.2783 7.03482L12.5005 7.03487C14.2805 7.03487 14.4915 7.04128 15.1944 7.0732C15.8444 7.10294 16.1972 7.21154 16.4322 7.30279C16.7433 7.42362 16.9651 7.5681 17.1983 7.80143C17.4317 8.03477 17.5761 8.25701 17.6972 8.5681C17.7885 8.80284 17.8972 9.1556 17.9268 9.8056C17.9587 10.5084 17.9657 10.7195 17.9657 12.4987C17.9657 14.2779 17.9587 14.489 17.9268 15.1918C17.8971 15.8418 17.7885 16.1946 17.6972 16.4293C17.5764 16.7404 17.4317 16.962 17.1983 17.1951C16.965 17.4285 16.7434 17.5729 16.4322 17.6938C16.1975 17.7854 15.8444 17.8938 15.1944 17.9235C14.4916 17.9554 14.2805 17.9624 12.5005 17.9624C10.7204 17.9624 10.5094 17.9554 9.80656 17.9235C9.15656 17.8935 8.8038 17.7849 8.56865 17.6936C8.25755 17.5728 8.03531 17.4283 7.80198 17.195C7.56865 16.9616 7.42422 16.74 7.30307 16.4287C7.21182 16.194 7.10307 15.8412 7.07349 15.1912C7.04156 14.4885 7.03516 14.2773 7.03516 12.497C7.03516 10.7167 7.04156 10.5067 7.07349 9.80393C7.10323 9.15393 7.21182 8.80117 7.30307 8.56617C7.42391 8.25503 7.56865 8.03284 7.80198 7.79951C8.03531 7.56617 8.25755 7.42169 8.56865 7.3006C8.80365 7.20893 9.15656 7.1006 9.80656 7.0707C10.4216 7.04294 10.6599 7.03461 11.9024 7.0332V7.03487ZM16.0592 8.14185C15.6175 8.14185 15.2591 8.49977 15.2591 8.94159C15.2591 9.38326 15.6175 9.74159 16.0592 9.74159C16.5008 9.74159 16.8592 9.38326 16.8592 8.94159C16.8592 8.49992 16.5008 8.14159 16.0592 8.14159V8.14185ZM9.07688 12.5002C9.07688 10.6096 10.6097 9.07664 12.5004 9.07659C14.3911 9.07659 15.9236 10.6095 15.9236 12.5002C15.9236 14.391 14.3912 15.9232 12.5005 15.9232C10.6098 15.9232 9.07688 14.391 9.07688 12.5002Z" fill="#FFFF00"/>
<path d="M12.5006 10.2778C13.7278 10.2778 14.7228 11.2727 14.7228 12.5001C14.7228 13.7273 13.7278 14.7223 12.5006 14.7223C11.2732 14.7223 10.2783 13.7273 10.2783 12.5001C10.2783 11.2727 11.2732 10.2778 12.5006 10.2778Z" fill="#FFFF00"/>
</svg>
