<svg width="25" height="25" viewBox="0 0 25 25" fill="none" xmlns="http://www.w3.org/2000/svg">
<path fill-rule="evenodd" clip-rule="evenodd" d="M12.5 0C5.59646 0 0 5.59646 0 12.5C0 19.4035 5.59646 25 12.5 25C19.4035 25 25 19.4035 25 12.5C25 5.59646 19.4035 0 12.5 0ZM6.00083 10.353H8.83359V18.8644H6.00083V10.353ZM9.02021 7.72016C9.00182 6.88562 8.40505 6.25 7.43594 6.25C6.46688 6.25 5.83333 6.88562 5.83333 7.72016C5.83333 8.5374 6.44818 9.1913 7.39917 9.1913H7.41729C8.40505 9.1913 9.02021 8.5374 9.02021 7.72016ZM15.7881 10.1532C17.6522 10.1532 19.0497 11.3699 19.0497 13.9842L19.0496 18.8644H16.2169V14.3108C16.2169 13.167 15.807 12.3866 14.7815 12.3866C13.9989 12.3866 13.5328 12.9127 13.328 13.4209C13.2531 13.603 13.2347 13.8568 13.2347 14.1111V18.8646H10.4016C10.4016 18.8646 10.439 11.1519 10.4016 10.3533H13.2347V11.5588C13.6107 10.9793 14.2841 10.1532 15.7881 10.1532Z" fill="#FFFF00"/>
</svg>
