<svg width="1366" height="842" viewBox="0 0 1366 842" fill="none" xmlns="http://www.w3.org/2000/svg">
<path d="M1365.81 0H0V595.027C0.823194 594.246 64.0192 599.147 577.154 785.818C1090.29 972.49 1374.32 617.625 1365.81 608.619V0Z" fill="#2F2F2F"/>
<mask id="mask0_377_368" style="mask-type:alpha" maskUnits="userSpaceOnUse" x="0" y="0" width="1366" height="842">
<path d="M1365.81 0H0V596.444C0.823194 595.661 64.0192 600.573 577.154 787.689C1090.29 974.805 1374.32 619.095 1365.81 610.068V0Z" fill="#2F2F2F"/>
</mask>
<g mask="url(#mask0_377_368)">
<g opacity="0.1">
<path d="M1365.89 0H1167.27C1141.94 42.3985 1126.1 89.4804 1107.38 134.93C1054.97 262.208 972.697 385.346 845.747 454.246C772.403 494.055 688.548 513.482 610.233 544.122C554.241 566.039 499.584 594.815 461.211 638.451C414.892 691.222 396.721 760.303 385.444 827.537C384.66 832.254 383.929 837.085 383.431 841.95H511.289C515.673 818.25 522.62 795.019 532.025 772.605C546.081 738.123 564.306 704.629 590.512 676.957C688.851 572.915 867.054 576.098 988.463 495.556C1140.03 395.059 1166.88 192.566 1296.77 68.7841C1319.23 47.3458 1345.46 27.1608 1365.89 4.25469V0Z" fill="#5B5B5B"/>
<path d="M1365.89 210.377C1324.1 228.88 1290.41 261.334 1263.62 296.658C1233.92 335.824 1211.28 379.113 1183.84 419.714C1147.31 473.656 1102.51 522.397 1050.83 564.406C1095.39 551.567 1135.6 528.274 1167.56 496.793C1221 444.022 1248.97 370.604 1310.59 326.243C1327.27 314.267 1345.92 304.846 1365.82 298.34L1365.89 210.377Z" fill="#5B5B5B"/>
<path d="M1365.89 26.5007C1351.7 35.7194 1338.52 46.2148 1326.56 57.8337C1283.68 99.4736 1258.61 153.119 1234.38 205.016L1230.82 212.668C1207.93 261.564 1180.46 318.013 1144.08 369.053C1105.72 422.863 1061.76 464.239 1013.35 492.026C1009.59 494.187 1005.66 496.364 1001.84 498.458C984.029 508.237 965.68 518.363 952.426 534.178C945.496 542.423 942.146 550.273 942.164 558.073C942.164 570.342 951.499 582.364 965.324 587.955C973.051 590.928 981.364 592.377 989.73 592.209C993.739 592.209 997.551 591.962 1000.99 591.649C1050.53 587.081 1100.61 562.344 1141.94 521.826C1179.8 484.704 1206.81 438.876 1229.23 398.819C1231.02 395.521 1232.8 392.223 1234.69 388.924C1249.47 362.291 1264.76 334.751 1284.02 310.559C1308.16 280.248 1335.39 259.437 1365 248.701L1366 248.355L1365.89 26.5007Z" fill="#4A4A4A"/>
<path d="M1365.89 63.2593C1331.63 78.6454 1306.39 110.061 1290.18 142.746C1270.85 181.681 1260.91 224.212 1240.79 262.801C1229.59 284.239 1215.3 304.424 1205.77 326.605C1202.55 334.092 1202.58 345.965 1211.26 346.608C1214.02 346.593 1216.72 345.774 1218.95 344.267C1262.65 319.679 1270.35 257.92 1316.26 237.075C1329.94 230.858 1346.17 228.829 1357.57 219.512C1360.86 216.782 1363.67 213.594 1365.89 210.063V63.2593Z" fill="#5B5B5B"/>
<path d="M969.813 0C962.544 15.5675 955.287 31.1296 948.043 46.6861C936.784 70.9115 925.471 95.0874 911.041 117.746C890.055 150.728 862.745 179.851 832.976 206.336C756.447 274.286 663.994 324.95 562.829 354.376C533.862 362.803 504.325 369.399 474.823 375.996L257.48 424.595C349.477 414.387 442.318 412.343 534.735 418.493C564.13 420.472 593.524 423.309 623.026 422.682C715.86 420.687 807.233 382.592 870.138 319.366C915.691 273.487 945.976 216.033 965.056 156.269C981.321 105.427 989.837 52.7713 995.68 0H969.813Z" fill="#5F5F5F"/>
<path d="M810.992 0C775.611 90.0411 744.898 185.227 664.73 243.49C581.356 304.078 467.323 307.558 363.657 328.37C241.037 353.007 122.068 407.824 42.756 497.898C26.6656 516.165 12.3576 535.718 0 556.325L0 661.126C44.4306 579.495 99.2651 502.499 184.314 459.243C331.127 384.555 517.205 435.083 677.094 388.809C780.813 358.796 868.053 288.066 923.244 201.405C962.419 139.894 986.148 70.9115 996.98 0H810.992Z" fill="#4A4A4A"/>
<path d="M493.992 331.47C436.627 339.963 377.624 338.067 321.062 350.402C245.562 366.778 178.364 407.675 122.318 457.264C76.6044 497.617 37.6074 543.825 0 590.907V591.501L19.8993 566.847C60.8738 521.612 106.266 478.257 162.526 450.437C294.357 385.215 460.963 415.805 597.408 359.324C682.581 324.066 750.492 254.655 779.976 172.711C711.103 256.683 606.44 314.765 493.992 331.47Z" fill="#343434"/>
<path d="M878.119 0C877.983 58.5305 859.746 115.801 825.564 165.042C811.989 184.436 795.956 202.461 784.59 223.058C781.544 228.599 779.424 236.531 784.928 240.093C788.598 242.468 793.622 241.297 797.844 239.912C855.743 220.898 900.637 175.333 925.257 123.205C943.535 84.4836 951.588 42.3985 953.369 0H878.119Z" fill="#343434"/>
<path d="M133.47 0C111.718 13.0939 92.8339 29.8158 74.1103 46.4718C49.2762 68.5698 24.46 90.7007 0 113.162V298.043C8.12849 283.729 17.4565 270.027 27.8983 257.062C61.7467 215.241 109.152 181.715 163.809 168.753C206.885 158.545 252.456 161.299 295.925 152.674C353.592 141.246 405.309 109.962 445.268 69.8231C466.226 48.496 484.557 25.0777 499.924 0L133.47 0Z" fill="#343434"/>
<path d="M361.998 0C354.407 26.0025 338.956 49.4591 317.461 67.6133C303.975 78.9097 288.315 87.9303 275.791 100.117C271.569 104.223 267.543 109.121 267.4 114.778C267.187 123.023 275.613 129.62 284.36 131.005C293.107 132.39 301.962 129.719 310.281 126.849C343.898 115.305 376.197 99.3091 402.652 76.9637C427.379 56.152 446.904 29.6839 455.936 0H361.998Z" fill="#4A4A4A"/>
<path d="M0 0V205.973C10.6287 191.854 23.4789 179.287 38.1241 168.687C98.0537 126.371 183.316 130.18 248.341 94.8565C274.119 80.8222 295.757 61.1154 311.335 37.4841C319.244 25.4622 325.48 12.5827 332.267 0L0 0Z" fill="#5F5F5F"/>
<path d="M275.01 0C261.061 14.2648 242.284 25.0499 222.794 32.0421C191.262 43.322 157.164 46.3728 123.779 51.2212C90.3932 56.0695 56.2953 63.2102 28.6287 81.1854C17.6001 88.4101 7.92842 97.2627 0 107.39L0 161.398C12.3506 143.734 29.3744 129.287 49.4544 119.428C84.247 102.574 124.936 100.909 163.257 93.0425C196.41 86.2152 229.047 74.1272 254.309 53.1176C271.612 38.9236 284.265 20.5202 290.83 0H275.01Z" fill="#4A4A4A"/>
<path d="M468.889 101.651C504.127 65.8157 550.126 35.0269 602.395 32.3883C623.024 31.3164 645.026 35.2413 660.293 48.1373C675.258 60.7859 681.671 80.6081 680.175 99.2595C678.678 117.911 670.216 135.705 659.331 151.52C634.978 186.893 598.511 214.186 558.374 233.662C518.237 253.137 474.376 265.209 430.213 274.609C494.643 251.701 548.486 208.802 582.549 153.235C591.367 138.739 598.939 122.627 597.442 106.037C595.946 89.4473 582.549 72.7914 564.734 71.703" fill="#343434"/>
<path d="M637.42 60.0609C616.042 35.5057 574.533 36.6931 542.84 48.3523C486.349 69.164 444.484 113.789 393.854 145.122C340.111 178.143 277.09 195.859 212.586 196.079C190.816 196.079 168.708 194.183 147.508 198.784C111.005 206.716 82.5012 232.772 59.1992 259.949C36.3484 286.601 16.5115 315.352 0 345.752L0 501.609C12.328 470.77 24.941 440.146 45.4638 413.53C90.4645 355.267 167.015 325.171 242.408 309.076C317.801 292.98 396.009 287.951 469.621 265.902C543.232 243.854 614.866 200.268 642.248 133.281C652.028 109.32 654.807 79.9986 637.42 60.0609Z" fill="#4A4A4A"/>
<path d="M278.27 231.369C297.51 231.369 316.448 227.131 334.797 221.804C368.948 211.91 402.494 198.09 429.43 176.355C466.842 146.259 491.124 101.733 535.037 80.4267C552.692 71.8513 575.103 67.9429 592.045 77.5902C607.544 86.3799 614.546 104.668 612.889 121.423C611.232 138.178 602.307 153.581 591.885 167.367C538.209 238.411 437.625 276.208 345.611 259.915C317.962 254.968 290.652 245.65 262.575 247.514" fill="#5F5F5F"/>
<path d="M494.562 184.848C483.873 176.998 468.196 179.521 455.226 183.594C430.018 191.51 406.627 203.68 381.793 212.569C344.14 225.997 303.782 231.681 263.519 229.225C222.046 226.669 178.007 215.917 140.596 232.903C123.351 240.769 109.562 253.962 97.4301 267.831C64.8287 305.084 40.1193 350.385 0 379.442V434.703C13.4325 414.914 27.6845 395.62 42.756 376.82C51.8772 365.425 61.337 354.194 72.5426 344.514C87.2934 331.733 104.77 321.938 122.745 313.329C176.948 287.477 236.172 271.88 296.958 267.451C356.816 263.131 420.772 268.968 473.184 241.874C484.443 236.052 495.257 228.367 500.708 217.549C506.159 206.731 504.681 192.252 494.562 184.848Z" fill="#5B5B5B"/>
<path d="M729.969 0C725.871 42.8767 727.991 86.7429 713.472 127.525C691.595 189.004 634.017 235.113 570.275 261.663C506.533 288.214 436.307 297.944 367.185 307.129C298.062 316.315 227.782 325.764 163.791 351.837C136.783 362.803 110.952 376.853 90.0369 396.016C71.349 413.15 57.0614 433.945 43.718 454.922C28.017 479.703 13.4444 505.066 0 531.012V604.1C73.3087 497.502 173.233 403.552 302.73 368.278C419.881 336.335 554.153 354.079 657.444 293.772C693.466 272.745 723.003 243.457 749.868 212.866C783.254 174.838 813.788 133.083 826.704 85.5556C834.293 57.6527 835.612 28.7109 838.729 0.0494731L729.969 0Z" fill="#5B5B5B"/>
<path d="M282.493 561.834C363.159 496.48 414.181 495.061 545.531 475.767C705.011 452.366 916.35 403.635 977.224 236.96C931.938 360.956 799.894 464.075 669.844 488.135C541.576 513.086 392.714 500.207 286.127 581.738" fill="#343434"/>
<path d="M468.141 841.951C467.196 829.03 467.357 816.061 468.622 803.164C476.354 730.686 529.318 667.937 593.202 625.357C657.087 582.778 731.838 557.15 804.452 529.132C877.066 501.114 950.107 469.286 1005.62 417.669C1062.15 365.129 1096.35 296.015 1128.92 228.27C1161.96 159.485 1194.65 90.1075 1214.71 17.1841C1216.26 11.5442 1217.72 5.80531 1218.83 0.0334473H1078.25C1049.48 67.6467 1016.81 160.129 990.636 211.119C960.476 269.843 929.478 329.689 880.7 376.475C783.68 469.534 633.695 495.128 494.008 497.271C453.034 497.915 411.097 497.041 371.922 508.37C296.262 530.155 242.372 595.327 218.553 665.249C199.224 722.044 196.712 782.138 198.582 841.951H468.141Z" fill="#4A4A4A"/>
<path d="M468.141 841.951C467.196 829.03 467.357 816.061 468.622 803.164C476.354 730.686 529.318 667.937 593.202 625.357C657.087 582.778 731.838 557.15 804.452 529.132C877.066 501.114 950.107 469.286 1005.62 417.669C1062.15 365.129 1096.35 296.015 1128.92 228.27C1161.96 159.485 1194.65 90.1075 1214.71 17.1841C1216.26 11.5442 1217.72 5.80531 1218.83 0.0334473H1078.25C1049.48 67.6467 1016.81 160.129 990.636 211.119C960.476 269.843 929.478 329.689 880.7 376.475C783.68 469.534 633.695 495.128 494.008 497.271C453.034 497.915 411.097 497.041 371.922 508.37C296.262 530.155 242.372 595.327 218.553 665.249C199.224 722.044 196.712 782.138 198.582 841.951H468.141Z" fill="#4A4A4A"/>
<path d="M1025.2 0C1033.93 66.1456 1035.71 133.297 1024.29 199.014C1011.6 272.069 982.049 343.492 932.113 401.277C1000.26 346.295 1035.26 264.879 1065.73 186.068C1089.47 124.342 1111.96 62.1877 1134.37 0H1025.2Z" fill="#5F5F5F"/>
<path d="M356.302 841.95H425.78C428.363 785.699 441.814 727.766 480.312 684.461C504.879 656.888 537.925 637.148 567.801 614.489C584.262 602.006 601.365 582.728 592.617 564.785C588.199 555.715 578.169 550.141 568.157 546.546C524.261 530.781 472.616 543.792 436.024 571.2C399.432 598.608 375.987 638.418 359.669 679.299C347.198 710.352 338.38 743.087 339.217 776.184C339.56 799.009 345.397 821.476 356.302 841.95Z" fill="#7B7B7B"/>
<path d="M420.167 841.951C432.638 820.941 431.337 794.127 434.936 769.703C440.939 729.053 462.032 691.684 485.245 656.74C494.153 643.267 503.933 628.507 501.671 612.824C498.517 590.759 471.047 576.956 447.281 580.37C423.516 583.783 404.08 599.928 389.971 617.936C338.307 683.901 340.089 779.021 287.214 841.951H420.167Z" fill="#343434"/>
<path d="M257.855 832.666C274.957 753.674 280.124 660.879 341.211 597.982C405.149 532.166 503.951 523.772 593.703 518.825C617.753 517.489 641.803 514.587 665.658 511.8C689.512 509.013 712.778 505.83 736.027 500.256C779.736 489.989 821.9 474.739 861.551 454.856C931.457 419.285 991.351 366.118 1029.24 300.879C1053.74 258.695 1068.92 211.547 1083.65 165.834C1091.79 140.537 1099.02 115.124 1108.27 90.1402C1117.35 64.7961 1127.92 39.9291 1139.93 15.6501C1144.45 6.72844 1130.11 -1.10481 1125.57 7.88281C1104.53 49.4732 1088.67 93.2075 1075.24 137.354C1061.81 181.501 1047.72 226.966 1027.57 269.068C994.433 338.33 937.211 395.076 867.341 433.978C785.748 479.461 691.383 498.063 597.212 503.241C508.44 508.188 411.349 515.329 342.975 574.334C267.635 639.358 260.848 740.679 241.821 828.543C239.719 838.224 255.753 842.363 257.855 832.65V832.666Z" fill="#5B5B5B"/>
<path d="M146.19 841.951C154.777 821.238 157.823 797.243 160.584 774.981C166.445 727.701 175.62 680.289 195.484 636.456C215.348 592.623 246.631 552.055 289.743 526.131C334.013 499.498 388.028 489.537 432.512 463.217C436.948 460.595 441.812 456.769 441.135 451.937C440.458 447.105 434.418 444.467 429.216 443.065C380.51 430.087 327.671 434.523 279.695 449.761C231.719 464.998 188.304 490.477 148.452 519.468C111.379 546.464 76.6044 577.187 52.4117 614.655C41.4376 631.706 32.8152 649.962 24.5312 668.25C16.0751 686.885 7.89798 705.63 0 724.485V841.951H146.19Z" fill="#5F5F5F"/>
<path d="M83.9244 841.951C90.8545 764.872 124.703 689.623 163.165 619.965C166.426 614.094 168.991 605.502 162.898 602.055C159.905 600.406 156.075 600.934 152.708 601.792C126.894 608.388 107.797 628.392 92.7785 648.923C51.0202 705.949 29.3037 773.002 22.1064 841.951H83.9244Z" fill="#7B7B7B"/>
<path d="M1365.89 425.732C1349.31 477.943 1334.11 530.698 1303.18 574.02C1255.76 640.462 1179.46 673.395 1106.35 701.331C1086.91 708.752 1067.33 716.173 1049.44 727.139C1010.11 751.464 981.605 794.456 970.773 841.95H1365.89V425.732Z" fill="#5B5B5B"/>
<path d="M1365.89 733.027C1356.62 736.282 1346.98 738.566 1337.16 739.838C1311.79 743.235 1285.96 741.487 1260.36 742.987C1183.06 747.704 1108.93 784.974 1061.95 841.934H1186.26C1203.06 831.893 1221.12 823.796 1240.05 817.824C1277.3 806.115 1318.81 802.157 1349.89 779.894C1355.72 775.695 1361.09 770.984 1365.93 765.828L1365.89 733.027Z" fill="#5F5F5F"/>
<path d="M1172.55 841.95C1189.58 828.955 1209.96 819.803 1230.43 812.085C1241.79 807.814 1253.78 803.658 1262.1 795.313C1270.42 786.969 1273.65 772.952 1265.67 764.376C1261.12 759.544 1254.12 757.417 1247.35 756.131C1224.03 751.695 1199.64 754.647 1176.88 761.078C1128.93 774.918 1087.48 803.406 1059.3 841.884L1172.55 841.95Z" fill="#7B7B7B"/>
<path d="M1365.89 550.62C1363.72 543.931 1360.85 537.453 1357.32 531.276C1344.23 566.831 1330.39 603.556 1302.51 630.849C1253.41 678.904 1174.24 685.978 1111.89 718.152C1059.82 745.378 1020.48 789.476 1001.43 841.951H1009.17C1039.84 801.663 1080.66 767.955 1129.02 747.704C1166.88 731.922 1207.86 724.567 1247.05 712.414C1286.24 700.26 1325.43 681.988 1349.18 650.638C1356.55 640.872 1362.17 630.069 1365.82 618.645L1365.89 550.62Z" fill="#4A4A4A"/>
<path d="M867.589 841.95C873.058 833.556 876.496 823.81 880.505 814.69C902.595 764.327 946.866 724.946 994.859 693.63C1042.85 662.313 1095.62 637.544 1143.72 606.54C1191.82 575.537 1236.77 536.849 1260.07 486.964C1234.11 521.463 1196.85 547.7 1156.41 566.846C1115.97 585.993 1072.27 598.427 1028.39 609.327C998.832 616.666 968.707 623.477 942.002 637.362C909.992 654.059 884.686 679.904 869.869 711.028C850.273 752.602 850.504 801.184 830.498 842L867.589 841.95Z" fill="#4A4A4A"/>
<path d="M1365.89 343.542H1365.34C1319.18 426.674 1263.62 507.628 1184.91 566.171C1138.06 601.033 1084.26 626.99 1035.41 659.412C986.559 691.833 941.185 732.929 922.016 785.667L924.955 841.968H926.256C936.945 798.481 949.54 753.229 983.014 721.385C1002.17 703.162 1026.82 690.778 1051.78 680.157C1135.83 644.421 1231.52 623.445 1295.58 561.686C1327.41 531.012 1348.49 492.852 1365.89 453.142V343.542Z" fill="#5F5F5F"/>
<path d="M1365.89 297.894C1344 349.017 1318.75 398.77 1286.26 444.665C1245.28 502.515 1192.12 554.099 1126.65 587.477C1069.65 616.567 1004.34 631.36 950.641 665.546C887.861 705.536 846.994 772.16 837.908 842H931.312C937.84 808.173 950.964 775.729 970.042 746.253C979.359 731.955 990.119 718.317 1003.46 707.087C1031.75 683.257 1069.38 671.829 1104.47 657.877C1173.95 630.271 1238.76 589.67 1284.67 534.03C1326.95 482.808 1351.16 421.89 1365.89 358.35V297.894Z" fill="#343434"/>
<path d="M584.509 841.95C599.61 830.666 612.521 817.081 622.686 801.778C643.352 771.418 656.303 736.968 677.539 706.938C701.276 673.494 734.437 646.692 773.437 629.43C789.577 622.306 807.285 616.814 825.1 618.265C741.37 600.01 647.075 639.621 606.795 709.923C583.155 751.15 576.902 800.343 555.488 841.95H584.509Z" fill="#5B5B5B"/>
<path d="M780.775 841.95C785.104 822.573 785.176 801.349 789.986 781.923C801.512 735.352 840.847 699.171 860.943 655.156C867.659 640.463 871.311 621.416 859.161 610.185C851.323 602.979 839.351 601.494 828.306 601.181C741.707 598.691 656.053 648.642 621.046 721.995C610.785 743.433 604.656 766.438 598.136 789.163C593.077 806.841 587.625 824.635 580.998 841.934L780.775 841.95Z" fill="#5F5F5F"/>
<path d="M728.633 841.95C730.367 837.005 731.561 831.911 732.196 826.745C739.685 782.516 759.376 740.825 789.364 705.701C797.007 696.779 805.522 687.924 808.711 676.941C811.9 665.958 807.607 652.039 796.045 648.18C791.264 646.861 786.212 646.623 781.312 647.488C731.822 653.606 693.021 691.585 671.785 733.406C654.38 767.707 646.096 805.093 636.155 841.95H728.633Z" fill="#4A4A4A"/>
</g>
</g>
</svg>
