<svg width="25" height="25" viewBox="0 0 25 25" fill="none" xmlns="http://www.w3.org/2000/svg">
<g clip-path="url(#clip0_132_921)">
<path d="M12.5009 24.9998C19.4044 24.9998 25.0008 19.4034 25.0008 12.4999C25.0008 5.59639 19.4044 0 12.5009 0C5.59737 0 0.000976562 5.59639 0.000976562 12.4999C0.000976562 19.4034 5.59737 24.9998 12.5009 24.9998Z" fill="#FFFF00"/>
<path d="M20.157 8.98338C19.6213 9.22091 19.0451 9.38157 18.4408 9.45331C19.0578 9.08365 19.5313 8.49874 19.7548 7.80064C19.1774 8.14312 18.5377 8.39157 17.8574 8.52548C17.3124 7.94503 16.5359 7.58228 15.676 7.58228C14.0262 7.58228 12.6882 8.92032 12.6882 10.5701C12.6882 10.8043 12.7147 11.0322 12.766 11.251C10.2828 11.1265 8.08112 9.93706 6.60737 8.12886C6.35023 8.57005 6.20272 9.08365 6.20272 9.63113C6.20272 10.6675 6.73059 11.5824 7.53186 12.118C7.04232 12.1027 6.5813 11.9683 6.17866 11.7439C6.17844 11.7566 6.17844 11.7693 6.17844 11.7818C6.17844 13.2295 7.20877 14.437 8.57534 14.7113C8.32488 14.7799 8.06039 14.8162 7.78833 14.8162C7.59536 14.8162 7.40842 14.7977 7.22615 14.7629C7.60628 15.9497 8.70948 16.8136 10.0172 16.8379C8.99447 17.6394 7.70633 18.1169 6.30611 18.1169C6.06546 18.1169 5.82705 18.1028 5.59375 18.075C6.91531 18.923 8.48621 19.4175 10.1734 19.4175C15.6691 19.4175 18.6745 14.8648 18.6745 10.9161C18.6745 10.7867 18.6716 10.6577 18.6658 10.5298C19.2501 10.1086 19.7566 9.58255 20.157 8.98338Z" fill="#313131"/>
</g>
<defs>
<clipPath id="clip0_132_921">
<rect width="25" height="25" fill="white"/>
</clipPath>
</defs>
</svg>
