<svg width="104" height="101" viewBox="0 0 104 101" fill="none" xmlns="http://www.w3.org/2000/svg">
<circle cx="59" cy="3" r="3" fill="#F2F7FF"/>
<circle cx="59" cy="3" r="3" fill="#FFFF00"/>
<circle cx="101" cy="3" r="3" fill="#F2F7FF"/>
<circle cx="101" cy="3" r="3" fill="#FFFF00"/>
<circle cx="87" cy="3" r="3" fill="#F2F7FF"/>
<circle cx="87" cy="3" r="3" fill="#FFFF00"/>
<circle cx="73" cy="3" r="3" fill="#F2F7FF"/>
<circle cx="73" cy="3" r="3" fill="#FFFF00"/>
<circle cx="59" cy="22" r="3" fill="#F2F7FF"/>
<circle cx="59" cy="22" r="3" fill="#FFFF00"/>
<circle cx="101" cy="22" r="3" fill="#F2F7FF"/>
<circle cx="101" cy="22" r="3" fill="#FFFF00"/>
<circle cx="87" cy="22" r="3" fill="#F2F7FF"/>
<circle cx="87" cy="22" r="3" fill="#FFFF00"/>
<circle cx="73" cy="22" r="3" fill="#F2F7FF"/>
<circle cx="73" cy="22" r="3" fill="#FFFF00"/>
<circle cx="59" cy="41" r="3" fill="#F2F7FF"/>
<circle cx="59" cy="41" r="3" fill="#FFFF00"/>
<circle cx="101" cy="41" r="3" fill="#F2F7FF"/>
<circle cx="101" cy="41" r="3" fill="#FFFF00"/>
<circle cx="87" cy="41" r="3" fill="#F2F7FF"/>
<circle cx="87" cy="41" r="3" fill="#FFFF00"/>
<circle cx="73" cy="41" r="3" fill="#F2F7FF"/>
<circle cx="73" cy="41" r="3" fill="#FFFF00"/>
<circle cx="59" cy="60" r="3" fill="#F2F7FF"/>
<circle cx="59" cy="60" r="3" fill="#FFFF00"/>
<circle cx="101" cy="60" r="3" fill="#F2F7FF"/>
<circle cx="101" cy="60" r="3" fill="#FFFF00"/>
<circle cx="87" cy="60" r="3" fill="#F2F7FF"/>
<circle cx="87" cy="60" r="3" fill="#FFFF00"/>
<circle cx="73" cy="60" r="3" fill="#F2F7FF"/>
<circle cx="73" cy="60" r="3" fill="#FFFF00"/>
<circle cx="59" cy="79" r="3" fill="#F2F7FF"/>
<circle cx="59" cy="79" r="3" fill="#FFFF00"/>
<circle cx="101" cy="79" r="3" fill="#F2F7FF"/>
<circle cx="101" cy="79" r="3" fill="#FFFF00"/>
<circle cx="87" cy="79" r="3" fill="#F2F7FF"/>
<circle cx="87" cy="79" r="3" fill="#FFFF00"/>
<circle cx="73" cy="79" r="3" fill="#F2F7FF"/>
<circle cx="73" cy="79" r="3" fill="#FFFF00"/>
<circle cx="59" cy="98" r="3" fill="#F2F7FF"/>
<circle cx="59" cy="98" r="3" fill="#FFFF00"/>
<circle cx="101" cy="98" r="3" fill="#F2F7FF"/>
<circle cx="101" cy="98" r="3" fill="#FFFF00"/>
<circle cx="87" cy="98" r="3" fill="#F2F7FF"/>
<circle cx="87" cy="98" r="3" fill="#FFFF00"/>
<circle cx="73" cy="98" r="3" fill="#F2F7FF"/>
<circle cx="73" cy="98" r="3" fill="#FFFF00"/>
<circle cx="3" cy="3" r="3" fill="#F2F7FF"/>
<circle cx="3" cy="3" r="3" fill="#FFFF00"/>
<circle cx="45" cy="3" r="3" fill="#F2F7FF"/>
<circle cx="45" cy="3" r="3" fill="#FFFF00"/>
<circle cx="31" cy="3" r="3" fill="#F2F7FF"/>
<circle cx="31" cy="3" r="3" fill="#FFFF00"/>
<circle cx="17" cy="3" r="3" fill="#F2F7FF"/>
<circle cx="17" cy="3" r="3" fill="#FFFF00"/>
<circle cx="3" cy="22" r="3" fill="#F2F7FF"/>
<circle cx="3" cy="22" r="3" fill="#FFFF00"/>
<circle cx="45" cy="22" r="3" fill="#F2F7FF"/>
<circle cx="45" cy="22" r="3" fill="#FFFF00"/>
<circle cx="31" cy="22" r="3" fill="#F2F7FF"/>
<circle cx="31" cy="22" r="3" fill="#FFFF00"/>
<circle cx="17" cy="22" r="3" fill="#F2F7FF"/>
<circle cx="17" cy="22" r="3" fill="#FFFF00"/>
<circle cx="3" cy="41" r="3" fill="#F2F7FF"/>
<circle cx="3" cy="41" r="3" fill="#FFFF00"/>
<circle cx="45" cy="41" r="3" fill="#F2F7FF"/>
<circle cx="45" cy="41" r="3" fill="#FFFF00"/>
<circle cx="31" cy="41" r="3" fill="#F2F7FF"/>
<circle cx="31" cy="41" r="3" fill="#FFFF00"/>
<circle cx="17" cy="41" r="3" fill="#F2F7FF"/>
<circle cx="17" cy="41" r="3" fill="#FFFF00"/>
<circle cx="3" cy="60" r="3" fill="#F2F7FF"/>
<circle cx="3" cy="60" r="3" fill="#FFFF00"/>
<circle cx="45" cy="60" r="3" fill="#F2F7FF"/>
<circle cx="45" cy="60" r="3" fill="#FFFF00"/>
<circle cx="31" cy="60" r="3" fill="#F2F7FF"/>
<circle cx="31" cy="60" r="3" fill="#FFFF00"/>
<circle cx="17" cy="60" r="3" fill="#F2F7FF"/>
<circle cx="17" cy="60" r="3" fill="#FFFF00"/>
<circle cx="3" cy="79" r="3" fill="#F2F7FF"/>
<circle cx="3" cy="79" r="3" fill="#FFFF00"/>
<circle cx="45" cy="79" r="3" fill="#F2F7FF"/>
<circle cx="45" cy="79" r="3" fill="#FFFF00"/>
<circle cx="31" cy="79" r="3" fill="#F2F7FF"/>
<circle cx="31" cy="79" r="3" fill="#FFFF00"/>
<circle cx="17" cy="79" r="3" fill="#F2F7FF"/>
<circle cx="17" cy="79" r="3" fill="#FFFF00"/>
<circle cx="3" cy="98" r="3" fill="#F2F7FF"/>
<circle cx="3" cy="98" r="3" fill="#FFFF00"/>
<circle cx="45" cy="98" r="3" fill="#F2F7FF"/>
<circle cx="45" cy="98" r="3" fill="#FFFF00"/>
<circle cx="31" cy="98" r="3" fill="#F2F7FF"/>
<circle cx="31" cy="98" r="3" fill="#FFFF00"/>
<circle cx="17" cy="98" r="3" fill="#F2F7FF"/>
<circle cx="17" cy="98" r="3" fill="#FFFF00"/>
</svg>
