<svg width="1052" height="412" viewBox="0 0 1052 412" fill="none" xmlns="http://www.w3.org/2000/svg">
<g clip-path="url(#clip0_242_2034)">
<rect width="1052" height="412" rx="5" fill="white"/>
<rect x="-120" y="-16" width="1052" height="412" rx="5" fill="white"/>
<path d="M343.5 14C343.5 167.72 190.482 292.5 1.5 292.5C-187.482 292.5 -340.5 167.72 -340.5 14C-340.5 -139.72 -187.482 -264.5 1.5 -264.5C190.482 -264.5 343.5 -139.72 343.5 14Z" stroke="#FFFF00"/>
<path d="M321.5 -10C321.5 143.72 168.482 268.5 -20.5 268.5C-209.482 268.5 -362.5 143.72 -362.5 -10C-362.5 -163.72 -209.482 -288.5 -20.5 -288.5C168.482 -288.5 321.5 -163.72 321.5 -10Z" stroke="#FFFF00"/>
<path d="M301.5 -34C301.5 119.72 148.482 244.5 -40.5 244.5C-229.482 244.5 -382.5 119.72 -382.5 -34C-382.5 -187.72 -229.482 -312.5 -40.5 -312.5C148.482 -312.5 301.5 -187.72 301.5 -34Z" stroke="#FFFF00"/>
<path d="M280.5 -52C280.5 101.72 127.482 226.5 -61.5 226.5C-250.482 226.5 -403.5 101.72 -403.5 -52C-403.5 -205.72 -250.482 -330.5 -61.5 -330.5C127.482 -330.5 280.5 -205.72 280.5 -52Z" stroke="#FFFF00"/>
<path d="M262.5 -67C262.5 86.7203 109.482 211.5 -79.5 211.5C-268.482 211.5 -421.5 86.7203 -421.5 -67C-421.5 -220.72 -268.482 -345.5 -79.5 -345.5C109.482 -345.5 262.5 -220.72 262.5 -67Z" stroke="#FFFF00"/>
<path d="M245.5 -84C245.5 69.7203 92.4821 194.5 -96.5 194.5C-285.482 194.5 -438.5 69.7203 -438.5 -84C-438.5 -237.72 -285.482 -362.5 -96.5 -362.5C92.4821 -362.5 245.5 -237.72 245.5 -84Z" stroke="#FFFF00"/>
<path d="M230.5 -102C230.5 51.7203 77.4821 176.5 -111.5 176.5C-300.482 176.5 -453.5 51.7203 -453.5 -102C-453.5 -255.72 -300.482 -380.5 -111.5 -380.5C77.4821 -380.5 230.5 -255.72 230.5 -102Z" stroke="#FFFF00"/>
<path d="M216.5 -119C216.5 34.7203 63.4821 159.5 -125.5 159.5C-314.482 159.5 -467.5 34.7203 -467.5 -119C-467.5 -272.72 -314.482 -397.5 -125.5 -397.5C63.4821 -397.5 216.5 -272.72 216.5 -119Z" stroke="#FFFF00"/>
<path d="M202.5 -137C202.5 16.7203 49.4821 141.5 -139.5 141.5C-328.482 141.5 -481.5 16.7203 -481.5 -137C-481.5 -290.72 -328.482 -415.5 -139.5 -415.5C49.4821 -415.5 202.5 -290.72 202.5 -137Z" stroke="#FFFF00"/>
<path d="M189.5 -155C189.5 -1.27966 36.4821 123.5 -152.5 123.5C-341.482 123.5 -494.5 -1.27966 -494.5 -155C-494.5 -308.72 -341.482 -433.5 -152.5 -433.5C36.4821 -433.5 189.5 -308.72 189.5 -155Z" stroke="#FFFF00"/>
<path d="M177.5 -169C177.5 -15.2797 24.4821 109.5 -164.5 109.5C-353.482 109.5 -506.5 -15.2797 -506.5 -169C-506.5 -322.72 -353.482 -447.5 -164.5 -447.5C24.4821 -447.5 177.5 -322.72 177.5 -169Z" stroke="#FFFF00"/>
<path d="M166.5 -184C166.5 -30.2797 13.4821 94.5 -175.5 94.5C-364.482 94.5 -517.5 -30.2797 -517.5 -184C-517.5 -337.72 -364.482 -462.5 -175.5 -462.5C13.4821 -462.5 166.5 -337.72 166.5 -184Z" stroke="#FFFF00"/>
<path d="M155.5 -199C155.5 -45.2797 2.48212 79.5 -186.5 79.5C-375.482 79.5 -528.5 -45.2797 -528.5 -199C-528.5 -352.72 -375.482 -477.5 -186.5 -477.5C2.48212 -477.5 155.5 -352.72 155.5 -199Z" stroke="#FFFF00"/>
<path d="M142.5 -213C142.5 -59.2797 -10.5179 65.5 -199.5 65.5C-388.482 65.5 -541.5 -59.2797 -541.5 -213C-541.5 -366.72 -388.482 -491.5 -199.5 -491.5C-10.5179 -491.5 142.5 -366.72 142.5 -213Z" stroke="#FFFF00"/>
<path d="M132.5 -227C132.5 -73.2797 -20.5179 51.5 -209.5 51.5C-398.482 51.5 -551.5 -73.2797 -551.5 -227C-551.5 -380.72 -398.482 -505.5 -209.5 -505.5C-20.5179 -505.5 132.5 -380.72 132.5 -227Z" stroke="#FFFF00"/>
<path d="M121.5 -240C121.5 -86.2797 -31.5179 38.5 -220.5 38.5C-409.482 38.5 -562.5 -86.2797 -562.5 -240C-562.5 -393.72 -409.482 -518.5 -220.5 -518.5C-31.5179 -518.5 121.5 -393.72 121.5 -240Z" stroke="#FFFF00"/>
<path d="M107.5 -252C107.5 -98.2797 -45.5179 26.5 -234.5 26.5C-423.482 26.5 -576.5 -98.2797 -576.5 -252C-576.5 -405.72 -423.482 -530.5 -234.5 -530.5C-45.5179 -530.5 107.5 -405.72 107.5 -252Z" stroke="#FFFF00"/>
<path d="M107.5 -252C107.5 -98.2797 -45.5179 26.5 -234.5 26.5C-423.482 26.5 -576.5 -98.2797 -576.5 -252C-576.5 -405.72 -423.482 -530.5 -234.5 -530.5C-45.5179 -530.5 107.5 -405.72 107.5 -252Z" stroke="#FFFF00"/>
<path d="M101.5 -266C101.5 -112.28 -51.5179 12.5 -240.5 12.5C-429.482 12.5 -582.5 -112.28 -582.5 -266C-582.5 -419.72 -429.482 -544.5 -240.5 -544.5C-51.5179 -544.5 101.5 -419.72 101.5 -266Z" stroke="#FFFF00"/>
<path d="M343.5 14C343.5 167.72 190.482 292.5 1.5 292.5C-187.482 292.5 -340.5 167.72 -340.5 14C-340.5 -139.72 -187.482 -264.5 1.5 -264.5C190.482 -264.5 343.5 -139.72 343.5 14Z" stroke="#FFFF00"/>
<path d="M321.5 -10C321.5 143.72 168.482 268.5 -20.5 268.5C-209.482 268.5 -362.5 143.72 -362.5 -10C-362.5 -163.72 -209.482 -288.5 -20.5 -288.5C168.482 -288.5 321.5 -163.72 321.5 -10Z" stroke="#FFFF00"/>
<path d="M301.5 -34C301.5 119.72 148.482 244.5 -40.5 244.5C-229.482 244.5 -382.5 119.72 -382.5 -34C-382.5 -187.72 -229.482 -312.5 -40.5 -312.5C148.482 -312.5 301.5 -187.72 301.5 -34Z" stroke="#FFFF00"/>
<path d="M280.5 -52C280.5 101.72 127.482 226.5 -61.5 226.5C-250.482 226.5 -403.5 101.72 -403.5 -52C-403.5 -205.72 -250.482 -330.5 -61.5 -330.5C127.482 -330.5 280.5 -205.72 280.5 -52Z" stroke="#FFFF00"/>
<path d="M262.5 -67C262.5 86.7203 109.482 211.5 -79.5 211.5C-268.482 211.5 -421.5 86.7203 -421.5 -67C-421.5 -220.72 -268.482 -345.5 -79.5 -345.5C109.482 -345.5 262.5 -220.72 262.5 -67Z" stroke="#FFFF00"/>
<path d="M245.5 -84C245.5 69.7203 92.4821 194.5 -96.5 194.5C-285.482 194.5 -438.5 69.7203 -438.5 -84C-438.5 -237.72 -285.482 -362.5 -96.5 -362.5C92.4821 -362.5 245.5 -237.72 245.5 -84Z" stroke="#FFFF00"/>
<path d="M230.5 -102C230.5 51.7203 77.4821 176.5 -111.5 176.5C-300.482 176.5 -453.5 51.7203 -453.5 -102C-453.5 -255.72 -300.482 -380.5 -111.5 -380.5C77.4821 -380.5 230.5 -255.72 230.5 -102Z" stroke="#FFFF00"/>
<path d="M216.5 -119C216.5 34.7203 63.4821 159.5 -125.5 159.5C-314.482 159.5 -467.5 34.7203 -467.5 -119C-467.5 -272.72 -314.482 -397.5 -125.5 -397.5C63.4821 -397.5 216.5 -272.72 216.5 -119Z" stroke="#FFFF00"/>
<path d="M202.5 -137C202.5 16.7203 49.4821 141.5 -139.5 141.5C-328.482 141.5 -481.5 16.7203 -481.5 -137C-481.5 -290.72 -328.482 -415.5 -139.5 -415.5C49.4821 -415.5 202.5 -290.72 202.5 -137Z" stroke="#FFFF00"/>
<path d="M189.5 -155C189.5 -1.27966 36.4821 123.5 -152.5 123.5C-341.482 123.5 -494.5 -1.27966 -494.5 -155C-494.5 -308.72 -341.482 -433.5 -152.5 -433.5C36.4821 -433.5 189.5 -308.72 189.5 -155Z" stroke="#FFFF00"/>
<path d="M177.5 -169C177.5 -15.2797 24.4821 109.5 -164.5 109.5C-353.482 109.5 -506.5 -15.2797 -506.5 -169C-506.5 -322.72 -353.482 -447.5 -164.5 -447.5C24.4821 -447.5 177.5 -322.72 177.5 -169Z" stroke="#FFFF00"/>
<path d="M166.5 -184C166.5 -30.2797 13.4821 94.5 -175.5 94.5C-364.482 94.5 -517.5 -30.2797 -517.5 -184C-517.5 -337.72 -364.482 -462.5 -175.5 -462.5C13.4821 -462.5 166.5 -337.72 166.5 -184Z" stroke="#FFFF00"/>
<path d="M155.5 -199C155.5 -45.2797 2.48212 79.5 -186.5 79.5C-375.482 79.5 -528.5 -45.2797 -528.5 -199C-528.5 -352.72 -375.482 -477.5 -186.5 -477.5C2.48212 -477.5 155.5 -352.72 155.5 -199Z" stroke="#FFFF00"/>
<path d="M142.5 -213C142.5 -59.2797 -10.5179 65.5 -199.5 65.5C-388.482 65.5 -541.5 -59.2797 -541.5 -213C-541.5 -366.72 -388.482 -491.5 -199.5 -491.5C-10.5179 -491.5 142.5 -366.72 142.5 -213Z" stroke="#FFFF00"/>
<path d="M132.5 -227C132.5 -73.2797 -20.5179 51.5 -209.5 51.5C-398.482 51.5 -551.5 -73.2797 -551.5 -227C-551.5 -380.72 -398.482 -505.5 -209.5 -505.5C-20.5179 -505.5 132.5 -380.72 132.5 -227Z" stroke="#FFFF00"/>
<path d="M121.5 -240C121.5 -86.2797 -31.5179 38.5 -220.5 38.5C-409.482 38.5 -562.5 -86.2797 -562.5 -240C-562.5 -393.72 -409.482 -518.5 -220.5 -518.5C-31.5179 -518.5 121.5 -393.72 121.5 -240Z" stroke="#FFFF00"/>
<path d="M107.5 -252C107.5 -98.2797 -45.5179 26.5 -234.5 26.5C-423.482 26.5 -576.5 -98.2797 -576.5 -252C-576.5 -405.72 -423.482 -530.5 -234.5 -530.5C-45.5179 -530.5 107.5 -405.72 107.5 -252Z" stroke="#FFFF00"/>
<path d="M107.5 -252C107.5 -98.2797 -45.5179 26.5 -234.5 26.5C-423.482 26.5 -576.5 -98.2797 -576.5 -252C-576.5 -405.72 -423.482 -530.5 -234.5 -530.5C-45.5179 -530.5 107.5 -405.72 107.5 -252Z" stroke="#FFFF00"/>
<path d="M101.5 -266C101.5 -112.28 -51.5179 12.5 -240.5 12.5C-429.482 12.5 -582.5 -112.28 -582.5 -266C-582.5 -419.72 -429.482 -544.5 -240.5 -544.5C-51.5179 -544.5 101.5 -419.72 101.5 -266Z" stroke="#FFFF00"/>
<path d="M1616.5 662C1616.5 815.72 1463.48 940.5 1274.5 940.5C1085.52 940.5 932.5 815.72 932.5 662C932.5 508.28 1085.52 383.5 1274.5 383.5C1463.48 383.5 1616.5 508.28 1616.5 662Z" stroke="#FFFF00"/>
<path d="M1594.5 638C1594.5 791.72 1441.48 916.5 1252.5 916.5C1063.52 916.5 910.5 791.72 910.5 638C910.5 484.28 1063.52 359.5 1252.5 359.5C1441.48 359.5 1594.5 484.28 1594.5 638Z" stroke="#FFFF00"/>
<path d="M1574.5 614C1574.5 767.72 1421.48 892.5 1232.5 892.5C1043.52 892.5 890.5 767.72 890.5 614C890.5 460.28 1043.52 335.5 1232.5 335.5C1421.48 335.5 1574.5 460.28 1574.5 614Z" stroke="#FFFF00"/>
<path d="M1553.5 596C1553.5 749.72 1400.48 874.5 1211.5 874.5C1022.52 874.5 869.5 749.72 869.5 596C869.5 442.28 1022.52 317.5 1211.5 317.5C1400.48 317.5 1553.5 442.28 1553.5 596Z" stroke="#FFFF00"/>
<path d="M1535.5 581C1535.5 734.72 1382.48 859.5 1193.5 859.5C1004.52 859.5 851.5 734.72 851.5 581C851.5 427.28 1004.52 302.5 1193.5 302.5C1382.48 302.5 1535.5 427.28 1535.5 581Z" stroke="#FFFF00"/>
<path d="M1518.5 564C1518.5 717.72 1365.48 842.5 1176.5 842.5C987.518 842.5 834.5 717.72 834.5 564C834.5 410.28 987.518 285.5 1176.5 285.5C1365.48 285.5 1518.5 410.28 1518.5 564Z" stroke="#FFFF00"/>
<path d="M1503.5 546C1503.5 699.72 1350.48 824.5 1161.5 824.5C972.518 824.5 819.5 699.72 819.5 546C819.5 392.28 972.518 267.5 1161.5 267.5C1350.48 267.5 1503.5 392.28 1503.5 546Z" stroke="#FFFF00"/>
<path d="M1489.5 529C1489.5 682.72 1336.48 807.5 1147.5 807.5C958.518 807.5 805.5 682.72 805.5 529C805.5 375.28 958.518 250.5 1147.5 250.5C1336.48 250.5 1489.5 375.28 1489.5 529Z" stroke="#FFFF00"/>
<path d="M1475.5 511C1475.5 664.72 1322.48 789.5 1133.5 789.5C944.518 789.5 791.5 664.72 791.5 511C791.5 357.28 944.518 232.5 1133.5 232.5C1322.48 232.5 1475.5 357.28 1475.5 511Z" stroke="#FFFF00"/>
<path d="M1462.5 493C1462.5 646.72 1309.48 771.5 1120.5 771.5C931.518 771.5 778.5 646.72 778.5 493C778.5 339.28 931.518 214.5 1120.5 214.5C1309.48 214.5 1462.5 339.28 1462.5 493Z" stroke="#FFFF00"/>
<path d="M1450.5 479C1450.5 632.72 1297.48 757.5 1108.5 757.5C919.518 757.5 766.5 632.72 766.5 479C766.5 325.28 919.518 200.5 1108.5 200.5C1297.48 200.5 1450.5 325.28 1450.5 479Z" stroke="#FFFF00"/>
<path d="M1439.5 464C1439.5 617.72 1286.48 742.5 1097.5 742.5C908.518 742.5 755.5 617.72 755.5 464C755.5 310.28 908.518 185.5 1097.5 185.5C1286.48 185.5 1439.5 310.28 1439.5 464Z" stroke="#FFFF00"/>
<path d="M1428.5 449C1428.5 602.72 1275.48 727.5 1086.5 727.5C897.518 727.5 744.5 602.72 744.5 449C744.5 295.28 897.518 170.5 1086.5 170.5C1275.48 170.5 1428.5 295.28 1428.5 449Z" stroke="#FFFF00"/>
<path d="M1415.5 435C1415.5 588.72 1262.48 713.5 1073.5 713.5C884.518 713.5 731.5 588.72 731.5 435C731.5 281.28 884.518 156.5 1073.5 156.5C1262.48 156.5 1415.5 281.28 1415.5 435Z" stroke="#FFFF00"/>
<path d="M1405.5 421C1405.5 574.72 1252.48 699.5 1063.5 699.5C874.518 699.5 721.5 574.72 721.5 421C721.5 267.28 874.518 142.5 1063.5 142.5C1252.48 142.5 1405.5 267.28 1405.5 421Z" stroke="#FFFF00"/>
<path d="M1394.5 408C1394.5 561.72 1241.48 686.5 1052.5 686.5C863.518 686.5 710.5 561.72 710.5 408C710.5 254.28 863.518 129.5 1052.5 129.5C1241.48 129.5 1394.5 254.28 1394.5 408Z" stroke="#FFFF00"/>
<path d="M1380.5 396C1380.5 549.72 1227.48 674.5 1038.5 674.5C849.518 674.5 696.5 549.72 696.5 396C696.5 242.28 849.518 117.5 1038.5 117.5C1227.48 117.5 1380.5 242.28 1380.5 396Z" stroke="#FFFF00"/>
<path d="M1380.5 396C1380.5 549.72 1227.48 674.5 1038.5 674.5C849.518 674.5 696.5 549.72 696.5 396C696.5 242.28 849.518 117.5 1038.5 117.5C1227.48 117.5 1380.5 242.28 1380.5 396Z" stroke="#FFFF00"/>
<path d="M1374.5 382C1374.5 535.72 1221.48 660.5 1032.5 660.5C843.518 660.5 690.5 535.72 690.5 382C690.5 228.28 843.518 103.5 1032.5 103.5C1221.48 103.5 1374.5 228.28 1374.5 382Z" stroke="#FFFF00"/>
<path d="M1616.5 662C1616.5 815.72 1463.48 940.5 1274.5 940.5C1085.52 940.5 932.5 815.72 932.5 662C932.5 508.28 1085.52 383.5 1274.5 383.5C1463.48 383.5 1616.5 508.28 1616.5 662Z" stroke="#FFFF00"/>
<path d="M1594.5 638C1594.5 791.72 1441.48 916.5 1252.5 916.5C1063.52 916.5 910.5 791.72 910.5 638C910.5 484.28 1063.52 359.5 1252.5 359.5C1441.48 359.5 1594.5 484.28 1594.5 638Z" stroke="#FFFF00"/>
<path d="M1574.5 614C1574.5 767.72 1421.48 892.5 1232.5 892.5C1043.52 892.5 890.5 767.72 890.5 614C890.5 460.28 1043.52 335.5 1232.5 335.5C1421.48 335.5 1574.5 460.28 1574.5 614Z" stroke="#FFFF00"/>
<path d="M1553.5 596C1553.5 749.72 1400.48 874.5 1211.5 874.5C1022.52 874.5 869.5 749.72 869.5 596C869.5 442.28 1022.52 317.5 1211.5 317.5C1400.48 317.5 1553.5 442.28 1553.5 596Z" stroke="#FFFF00"/>
<path d="M1535.5 581C1535.5 734.72 1382.48 859.5 1193.5 859.5C1004.52 859.5 851.5 734.72 851.5 581C851.5 427.28 1004.52 302.5 1193.5 302.5C1382.48 302.5 1535.5 427.28 1535.5 581Z" stroke="#FFFF00"/>
<path d="M1518.5 564C1518.5 717.72 1365.48 842.5 1176.5 842.5C987.518 842.5 834.5 717.72 834.5 564C834.5 410.28 987.518 285.5 1176.5 285.5C1365.48 285.5 1518.5 410.28 1518.5 564Z" stroke="#FFFF00"/>
<path d="M1503.5 546C1503.5 699.72 1350.48 824.5 1161.5 824.5C972.518 824.5 819.5 699.72 819.5 546C819.5 392.28 972.518 267.5 1161.5 267.5C1350.48 267.5 1503.5 392.28 1503.5 546Z" stroke="#FFFF00"/>
<path d="M1489.5 529C1489.5 682.72 1336.48 807.5 1147.5 807.5C958.518 807.5 805.5 682.72 805.5 529C805.5 375.28 958.518 250.5 1147.5 250.5C1336.48 250.5 1489.5 375.28 1489.5 529Z" stroke="#FFFF00"/>
<path d="M1475.5 511C1475.5 664.72 1322.48 789.5 1133.5 789.5C944.518 789.5 791.5 664.72 791.5 511C791.5 357.28 944.518 232.5 1133.5 232.5C1322.48 232.5 1475.5 357.28 1475.5 511Z" stroke="#FFFF00"/>
<path d="M1462.5 493C1462.5 646.72 1309.48 771.5 1120.5 771.5C931.518 771.5 778.5 646.72 778.5 493C778.5 339.28 931.518 214.5 1120.5 214.5C1309.48 214.5 1462.5 339.28 1462.5 493Z" stroke="#FFFF00"/>
<path d="M1450.5 479C1450.5 632.72 1297.48 757.5 1108.5 757.5C919.518 757.5 766.5 632.72 766.5 479C766.5 325.28 919.518 200.5 1108.5 200.5C1297.48 200.5 1450.5 325.28 1450.5 479Z" stroke="#FFFF00"/>
<path d="M1439.5 464C1439.5 617.72 1286.48 742.5 1097.5 742.5C908.518 742.5 755.5 617.72 755.5 464C755.5 310.28 908.518 185.5 1097.5 185.5C1286.48 185.5 1439.5 310.28 1439.5 464Z" stroke="#FFFF00"/>
<path d="M1428.5 449C1428.5 602.72 1275.48 727.5 1086.5 727.5C897.518 727.5 744.5 602.72 744.5 449C744.5 295.28 897.518 170.5 1086.5 170.5C1275.48 170.5 1428.5 295.28 1428.5 449Z" stroke="#FFFF00"/>
<path d="M1415.5 435C1415.5 588.72 1262.48 713.5 1073.5 713.5C884.518 713.5 731.5 588.72 731.5 435C731.5 281.28 884.518 156.5 1073.5 156.5C1262.48 156.5 1415.5 281.28 1415.5 435Z" stroke="#FFFF00"/>
<path d="M1405.5 421C1405.5 574.72 1252.48 699.5 1063.5 699.5C874.518 699.5 721.5 574.72 721.5 421C721.5 267.28 874.518 142.5 1063.5 142.5C1252.48 142.5 1405.5 267.28 1405.5 421Z" stroke="#FFFF00"/>
<path d="M1394.5 408C1394.5 561.72 1241.48 686.5 1052.5 686.5C863.518 686.5 710.5 561.72 710.5 408C710.5 254.28 863.518 129.5 1052.5 129.5C1241.48 129.5 1394.5 254.28 1394.5 408Z" stroke="#FFFF00"/>
<path d="M1380.5 396C1380.5 549.72 1227.48 674.5 1038.5 674.5C849.518 674.5 696.5 549.72 696.5 396C696.5 242.28 849.518 117.5 1038.5 117.5C1227.48 117.5 1380.5 242.28 1380.5 396Z" stroke="#FFFF00"/>
<path d="M1380.5 396C1380.5 549.72 1227.48 674.5 1038.5 674.5C849.518 674.5 696.5 549.72 696.5 396C696.5 242.28 849.518 117.5 1038.5 117.5C1227.48 117.5 1380.5 242.28 1380.5 396Z" stroke="#FFFF00"/>
<path d="M1374.5 382C1374.5 535.72 1221.48 660.5 1032.5 660.5C843.518 660.5 690.5 535.72 690.5 382C690.5 228.28 843.518 103.5 1032.5 103.5C1221.48 103.5 1374.5 228.28 1374.5 382Z" stroke="#FFFF00"/>
</g>
<rect x="0.5" y="0.5" width="1051" height="411" rx="4.5" stroke="#FFFF00"/>
<defs>
<clipPath id="clip0_242_2034">
<rect width="1052" height="412" rx="5" fill="white"/>
</clipPath>
</defs>
</svg>
