<svg width="17" height="20" viewBox="0 0 17 20" fill="none" xmlns="http://www.w3.org/2000/svg">
<path d="M15.2843 16.2169L4.66181 16.2169C3.92922 16.2169 3.32995 17.0679 3.32995 18.1083C3.32995 19.1486 3.92922 19.9997 4.66181 19.9997L15.2843 20C16.0169 20 16.6162 19.149 16.6162 18.1086C16.6164 17.0682 16.0169 16.2169 15.2843 16.2169V16.2169Z" fill="#303030"/>
<path d="M4.69511 3.96313L15.2843 3.96313C16.0169 3.96313 16.6162 3.1121 16.6162 2.07173C16.6162 1.03137 16.0169 0.180335 15.2843 0.180335L4.66181 0.180335C3.92922 0.180335 3.32995 1.03137 3.32995 2.07173C3.32995 3.11176 3.9627 3.96313 4.69529 3.96313H4.69511Z" fill="#303030"/>
<path d="M1.36516 11.9814L15.2843 11.9814C16.0169 11.9814 16.6162 11.1304 16.6162 10.09C16.6162 9.04968 16.0169 8.19865 15.2843 8.19865L1.33186 8.19865C0.599269 8.19865 -1.94113e-07 9.04968 -1.94113e-07 10.09C-1.94113e-07 11.1304 0.63275 11.9814 1.36534 11.9814H1.36516Z" fill="#303030"/>
</svg>
