<svg width="12" height="10" viewBox="0 0 12 10" fill="none" xmlns="http://www.w3.org/2000/svg">
<path d="M4.7998 0.416504C4.4832 0.416504 4.19396 0.506418 3.96126 0.679687C3.72856 0.852758 3.5472 1.13243 3.5472 1.45671C3.5472 1.47003 3.55185 1.48224 3.55241 1.49544H0.492513C0.23469 1.49544 0.0625587 1.64746 0.0367839 1.87256V3.18962L4.63704 4.71289C4.83876 4.37457 5.23368 4.14047 5.69173 4.13297C5.69957 4.13077 5.70596 4.12842 5.71387 4.12842H6.25553C6.26445 4.12842 6.27276 4.13297 6.28158 4.13297C6.73903 4.14179 7.13313 4.37641 7.33366 4.71517L11.9756 3.10758V1.89421C11.964 1.65724 11.7788 1.49544 11.5094 1.49544H8.45215C8.45271 1.48224 8.45736 1.47003 8.45736 1.45671C8.45736 1.13243 8.27598 0.852891 8.04329 0.679687C7.81061 0.506617 7.52139 0.416504 7.20475 0.416504H4.7998ZM4.7998 1.20492H7.20475C7.37501 1.20492 7.51506 1.26252 7.59538 1.32227C7.6757 1.38201 7.68652 1.42253 7.68652 1.45671C7.68652 1.47128 7.6797 1.48259 7.67741 1.49544C7.90824 1.49554 8.04195 1.49524 8.35449 1.49544C8.28114 1.60709 8.17503 1.70473 8.0485 1.77686C7.81371 1.91046 7.52136 1.9751 7.20475 1.9751H4.7998C4.48316 1.9751 4.19082 1.91068 3.95605 1.77686C3.82953 1.70477 3.72342 1.6071 3.65006 1.49544C4.04016 1.49544 4.04108 1.49549 4.32715 1.49544C4.32485 1.48258 4.31803 1.47123 4.31803 1.45671C4.31803 1.42253 4.32889 1.38201 4.40918 1.32227C4.48948 1.26252 4.62952 1.20492 4.7998 1.20492ZM11.9795 3.8151L7.47689 5.37598V5.71549C7.47689 6.30812 6.92486 6.79671 6.25423 6.79671H5.71387C5.04324 6.79671 4.49251 6.3081 4.49251 5.71549V5.3737L0.0224609 3.8903V9.01269C0.0224609 9.21553 0.230565 9.43196 0.491211 9.43196H11.5107C11.7714 9.43196 11.9795 9.2154 11.9795 9.01269V3.8151ZM5.71387 4.78922V4.79036C5.67118 4.79036 5.63462 4.80198 5.59668 4.80859C5.57564 4.813 5.55232 4.81003 5.53288 4.81885C5.3721 4.87374 5.26742 5.00336 5.25163 5.17432C5.24958 5.19552 5.24522 5.21651 5.23861 5.23698V5.71777C5.23861 5.96389 5.4354 6.13704 5.71387 6.13704H6.25423C6.5327 6.13704 6.72949 5.96391 6.72949 5.71777V5.23812C6.72356 5.21873 6.71964 5.19889 6.71777 5.17887C6.70376 5.00492 6.60058 4.87361 6.43783 4.81885C6.38358 4.80121 6.32164 4.78922 6.25553 4.78922H5.71387Z" fill="#35352F"/>
</svg>
