<svg width="20" height="19" viewBox="0 0 20 19" fill="none" xmlns="http://www.w3.org/2000/svg">
<path d="M18.9411 3.51426H3.23078C3.17507 3.51426 3.06365 3.57382 3.06365 3.69295V18.0472C3.06365 18.1663 3.17507 18.2259 3.23078 18.2259H18.9411C19.0525 18.2259 19.1082 18.1067 19.1082 18.0472V3.69295C19.1639 3.57382 19.0525 3.51426 18.9411 3.51426ZM7.1305 6.96881C7.74332 6.96881 8.30042 7.50486 8.30042 8.21959C8.30042 8.87477 7.79903 9.47038 7.1305 9.47038C6.46198 9.47038 5.96059 8.93433 5.96059 8.21959C5.96059 7.50486 6.46198 6.96881 7.1305 6.96881ZM6.12772 15.3074L7.57618 11.7933L9.35891 13.6397L11.4202 10.1851L14.15 13.2823L16.5455 7.98135L17.0469 15.3669H6.12772V15.3074ZM1.78231 14.5926H2.72939V15.7243H0.668107C0.556687 15.7243 0.500977 15.6052 0.500977 15.5456V1.19138C0.500977 1.07226 0.612397 1.0127 0.668107 1.0127H16.3784C16.4898 1.0127 16.5455 1.13182 16.5455 1.19138V3.09733H15.3756V2.32304C15.3756 2.20392 15.3199 2.14436 15.2085 2.14436H1.78231C1.67089 2.20392 1.61518 2.20392 1.61518 2.32304V14.4139C1.61518 14.5926 1.67089 14.5926 1.78231 14.5926Z" fill="#35352F"/>
</svg>
