<svg width="20" height="20" viewBox="0 0 20 20" fill="none" xmlns="http://www.w3.org/2000/svg">
<g clip-path="url(#clip0_243_2185)">
<path d="M10 0C8.02219 0 6.08879 0.58649 4.4443 1.6853C2.79981 2.78412 1.51809 4.3459 0.761209 6.17317C0.00433283 8.00043 -0.193701 10.0111 0.192152 11.9509C0.578004 13.8907 1.53041 15.6725 2.92894 17.0711C4.32746 18.4696 6.10929 19.422 8.0491 19.8079C9.98891 20.1937 11.9996 19.9957 13.8268 19.2388C15.6541 18.4819 17.2159 17.2002 18.3147 15.5557C19.4135 13.9112 20 11.9778 20 10C19.9958 7.34913 18.9408 4.80805 17.0664 2.93361C15.1919 1.05916 12.6509 0.00423124 10 0V0ZM14.208 10.336L7.808 14.336C7.74499 14.3741 7.67354 14.3961 7.6 14.4C7.53299 14.4003 7.46697 14.3838 7.408 14.352C7.34543 14.3168 7.29325 14.2657 7.25673 14.2039C7.22021 14.1421 7.20064 14.0718 7.2 14V6C7.20064 5.92821 7.22021 5.85787 7.25673 5.79606C7.29325 5.73426 7.34543 5.68319 7.408 5.648C7.46946 5.61055 7.54004 5.59074 7.612 5.59074C7.68397 5.59074 7.75455 5.61055 7.816 5.648L14.216 9.648C14.274 9.68284 14.322 9.7321 14.3553 9.79098C14.3886 9.84986 14.4061 9.91635 14.4061 9.984C14.4061 10.0516 14.3886 10.1181 14.3553 10.177C14.322 10.2359 14.274 10.2852 14.216 10.32L14.208 10.336Z" fill="#35352F"/>
</g>
<defs>
<clipPath id="clip0_243_2185">
<rect width="20" height="20" fill="white"/>
</clipPath>
</defs>
</svg>
