<svg width="14" height="14" viewBox="0 0 14 14" fill="none" xmlns="http://www.w3.org/2000/svg">
<path d="M7.00175 0H6.99825C3.13863 0 0 3.1395 0 7C0 8.53125 0.4935 9.9505 1.33263 11.1029L0.46025 13.7034L3.15088 12.8433C4.25775 13.5765 5.57812 14 7.00175 14C10.8614 14 14 10.8596 14 7C14 3.14038 10.8614 0 7.00175 0Z" fill="#4CAF50"/>
<path d="M11.0755 9.88491C10.9066 10.3618 10.2363 10.7573 9.70172 10.8728C9.33597 10.9507 8.85822 11.0128 7.24997 10.346C5.19284 9.49379 3.86809 7.40341 3.76484 7.26779C3.66597 7.13216 2.93359 6.16091 2.93359 5.15641C2.93359 4.15191 3.44372 3.66279 3.64934 3.45279C3.81822 3.28041 4.09734 3.20166 4.36509 3.20166C4.45172 3.20166 4.52959 3.20604 4.59959 3.20954C4.80522 3.21829 4.90847 3.23054 5.04409 3.55516C5.21297 3.96204 5.62422 4.96654 5.67322 5.06979C5.72309 5.17304 5.77297 5.31304 5.70297 5.44866C5.63734 5.58866 5.57959 5.65079 5.47634 5.76979C5.37309 5.88879 5.27509 5.97979 5.17184 6.10754C5.07734 6.21866 4.97059 6.33766 5.08959 6.54329C5.20859 6.74454 5.61984 7.41566 6.22534 7.95466C7.00672 8.65029 7.64022 8.87254 7.86684 8.96704C8.03572 9.03704 8.23697 9.02041 8.36034 8.88916C8.51697 8.72029 8.71034 8.44029 8.90722 8.16466C9.04722 7.96691 9.22397 7.94241 9.40947 8.01241C9.59847 8.07804 10.5986 8.57241 10.8042 8.67479C11.0098 8.77804 11.1455 8.82704 11.1953 8.91366C11.2443 9.00029 11.2443 9.40716 11.0755 9.88491Z" fill="#FAFAFA"/>
</svg>
