<svg width="20" height="23" viewBox="0 0 20 23" fill="none" xmlns="http://www.w3.org/2000/svg">
<path d="M19.4113 4.40253C19.4113 4.09134 19.2877 3.79274 19.0677 3.57273C18.8475 3.35272 18.5491 3.22913 18.2379 3.22913C14.9806 3.22913 12.6056 2.33731 10.5496 0.335582V0.335419C10.3303 0.120482 10.0354 0 9.72835 0C9.42109 0 9.12627 0.120482 8.90689 0.335419C6.84872 2.33731 4.47607 3.22896 1.21865 3.22896V3.22913C0.907458 3.22913 0.60903 3.35272 0.389019 3.57273C0.169008 3.79274 0.0452524 4.09133 0.0452524 4.40253C0.0452524 4.94698 0.0452525 5.51029 0.0241352 6.1086C-0.0837415 11.8088 -0.23402 19.6169 9.34339 22.9351H9.34355C9.5927 23.0216 9.86395 23.0216 10.1133 22.9351C19.6907 19.6167 19.5402 11.8088 19.4325 6.10399C19.4207 5.51025 19.4114 4.94715 19.4114 4.40265L19.4113 4.40253ZM15.363 16.2819C14.2708 15.4146 13.091 14.6636 11.8428 14.0408C11.8256 14.0326 11.8147 14.0153 11.8147 13.9961V12.8227C11.9795 12.5426 12.0947 12.2362 12.155 11.9168C12.338 11.8582 12.5024 11.5649 12.6572 11.0157C12.798 10.5157 12.8003 10.1919 12.6572 10.0253V10.0254C12.5986 9.95587 12.5135 9.91413 12.4224 9.91037C12.4539 9.81116 12.4789 9.71 12.4976 9.60769C12.6642 8.59865 12.5773 7.86872 12.2371 7.43687C12.1073 7.26155 11.9178 7.13959 11.7045 7.09424C11.5288 6.82185 11.2865 6.59874 11.0004 6.44649C10.5548 6.18834 10.0385 6.07899 9.52661 6.13448C9.32509 6.14414 9.12604 6.18212 8.93518 6.24711C8.71729 6.32781 8.51137 6.43765 8.32262 6.57319C8.081 6.72641 7.85934 6.90926 7.66326 7.11765C7.31229 7.46256 7.06378 7.89799 6.9451 8.37552C6.85212 8.7779 6.85212 9.19598 6.9451 9.59837C6.96376 9.70068 6.98897 9.80184 7.02024 9.90105C6.92939 9.90465 6.8441 9.94639 6.7855 10.016C6.64701 10.1826 6.64946 10.5064 6.7855 11.0063C6.94035 11.5531 7.10471 11.8489 7.28771 11.9075C7.34762 12.2307 7.4627 12.541 7.62804 12.8252V13.9986C7.62804 14.0176 7.61707 14.0349 7.59988 14.0431C6.35185 14.6658 5.17205 15.4169 4.0797 16.2843C2.22582 13.2993 2.29619 9.58673 2.36185 6.1554V5.54054C5.29764 5.35507 7.67523 4.46093 9.73076 2.75243C11.7865 4.46098 14.1641 5.35506 17.0737 5.54054V6.1554C17.1511 9.58388 17.2192 13.2968 15.3629 16.2818L15.363 16.2819Z" fill="black"/>
</svg>
