<svg width="22" height="22" viewBox="0 0 22 22" fill="none" xmlns="http://www.w3.org/2000/svg">
<path d="M14.3552 12.845H13.5101C13.125 12.8447 12.7499 12.7226 12.4383 12.4963C12.1267 12.2699 11.8945 11.951 11.775 11.5849L11.515 10.7798V10.78C11.4408 10.5543 11.2301 10.4016 10.9925 10.4016C10.755 10.4016 10.5442 10.5543 10.47 10.78L10.21 11.585V11.5849C10.0905 11.951 9.85848 12.2699 9.54673 12.4963C9.23518 12.7226 8.86016 12.8447 8.47495 12.845H7.63001C7.39229 12.8463 7.18237 13.0004 7.10951 13.2265C7.03685 13.4529 7.11771 13.7003 7.3099 13.8399L7.98992 14.335C8.30098 14.561 8.53284 14.8792 8.6522 15.2447C8.77157 15.6102 8.77257 16.0039 8.65505 16.3701L8.39506 17.1751L8.39489 17.175C8.31553 17.4006 8.39506 17.6514 8.58992 17.7901C8.78278 17.9339 9.04713 17.9339 9.23999 17.7901L9.92001 17.295C10.2307 17.0662 10.6066 16.9426 10.9924 16.9426C11.3785 16.9426 11.7543 17.0662 12.065 17.295L12.7451 17.7901H12.7449C12.9359 17.9339 13.1991 17.9339 13.3899 17.7901C13.5887 17.6543 13.6709 17.4017 13.59 17.175L13.33 16.3699V16.3701C13.2111 16.0041 13.2115 15.6098 13.331 15.2442C13.4505 14.8785 13.6831 14.5601 13.995 14.335L14.675 13.8399C14.8673 13.7003 14.9482 13.4529 14.8754 13.2265C14.8025 13.0004 14.5926 12.8463 14.355 12.845H14.3552Z" fill="black"/>
<path d="M3.49975 22.0003H18.4999C19.4279 21.9992 20.3175 21.6302 20.9736 20.9739C21.6298 20.3178 21.9988 19.4282 22 18.5002V5.60012C21.9988 4.67216 21.6299 3.78252 20.9736 3.12642C20.3175 2.47018 19.4279 2.10118 18.4999 2.10002H17.5V0.500062C17.5 0.223999 17.276 0 16.9999 0C16.7238 0 16.4998 0.223999 16.4998 0.500062V2.10002H11.5001V0.500062C11.5001 0.223999 11.2761 0 11 0C10.7239 0 10.4999 0.223999 10.4999 0.500062V2.10002H5.50017V0.500062C5.50017 0.223999 5.27617 0 5.00011 0C4.72405 0 4.50005 0.223999 4.50005 0.500062V2.10002H3.50009C2.57214 2.10119 1.6825 2.47017 1.0264 3.12642C0.370161 3.78252 0.00115715 4.67212 0 5.60012V18.5002C0.0011719 19.4282 0.370148 20.3178 1.0264 20.9739C1.6825 21.6302 2.5721 21.9992 3.50009 22.0003H3.49975ZM15.265 14.6451L14.58 15.1402H14.5801C14.4389 15.243 14.3342 15.3879 14.2811 15.5544C14.2281 15.7206 14.2294 15.8996 14.285 16.0651L14.545 16.8652C14.6853 17.2834 14.6399 17.7418 14.4203 18.1245C14.2006 18.5072 13.8278 18.7775 13.3959 18.8676C12.964 18.9575 12.5141 18.8584 12.16 18.5951L11.475 18.1V18.1002C11.335 17.9977 11.166 17.9427 10.9925 17.9427C10.8191 17.9427 10.6502 17.9977 10.51 18.1002L9.82499 18.5952V18.5951C9.4699 18.8526 9.0224 18.9473 8.59335 18.8562C8.16443 18.7652 7.79414 18.4965 7.57432 18.117C7.35451 17.7374 7.30563 17.2826 7.44006 16.8652L7.70005 16.0651C7.75345 15.8989 7.75329 15.7203 7.69955 15.5542C7.64564 15.3881 7.54084 15.2433 7.40004 15.1402L6.72002 14.6451C6.36695 14.3863 6.13995 13.9902 6.09473 13.5548C6.0497 13.1194 6.19083 12.6853 6.4833 12.3595C6.77576 12.0338 7.19229 11.8468 7.63008 11.845H8.47502C8.64913 11.8442 8.81838 11.7886 8.95918 11.6863C9.10014 11.584 9.20528 11.4402 9.26002 11.2751L9.52001 10.4751C9.65411 10.0562 9.96016 9.71416 10.3616 9.53472C10.7632 9.35525 11.2221 9.35525 11.6235 9.53472C12.025 9.71418 12.3312 10.0562 12.4651 10.4751L12.7251 11.2751C12.7787 11.441 12.8835 11.5857 13.0246 11.6881C13.1658 11.7906 13.3357 11.8455 13.5101 11.845H14.3552C14.7929 11.8468 15.2096 12.0338 15.502 12.3595C15.7945 12.6852 15.9356 13.1193 15.8904 13.5548C15.8454 13.9902 15.6182 14.3863 15.2651 14.6451L15.265 14.6451ZM3.49975 3.10015H4.4997V4.50005C4.4997 4.77628 4.7237 5.00011 4.99977 5.00011C5.27583 5.00011 5.49983 4.77628 5.49983 4.50005V3.10015H10.4996V4.50005C10.4996 4.77628 10.7236 5.00011 10.9997 5.00011C11.2757 5.00011 11.4997 4.77628 11.4997 4.50005V3.10015H16.4995V4.50005C16.4995 4.77628 16.7235 5.00011 16.9995 5.00011C17.2756 5.00011 17.4996 4.77628 17.4996 4.50005V3.10015H18.4996C19.1624 3.10082 19.7978 3.36449 20.2665 3.83323C20.7352 4.30183 20.9989 4.93732 20.9995 5.60012V6.30007H0.999611V5.60012C1.00028 4.93732 1.26396 4.30183 1.73269 3.83323C2.20129 3.36445 2.83679 3.10079 3.49958 3.10015H3.49975Z" fill="black"/>
</svg>
