<svg width="22" height="22" viewBox="0 0 22 22" fill="none" xmlns="http://www.w3.org/2000/svg">
<path d="M21.815 3.98664C21.7287 3.00755 21.3004 2.09002 20.6054 1.39481C19.9102 0.699798 18.9927 0.27146 18.0136 0.185227C16.8009 0.0778024 15.132 0 12.8517 0C10.5715 0 8.90426 0.0778064 7.6915 0.185227C6.27963 0.309839 5.02679 1.14035 4.3623 2.39217C5.70079 2.29242 7.3083 2.24224 9.1509 2.24224C11.2302 2.24224 13.01 2.30623 14.4416 2.43253C15.7627 2.54855 17.0009 3.12648 17.9384 4.06476C18.8757 5.00287 19.4527 6.24129 19.5678 7.56261C19.6941 8.99439 19.7581 10.7741 19.7581 12.8533C19.7581 14.6957 19.7078 16.3032 19.6082 17.6419V17.642C20.86 16.9774 21.6905 15.7245 21.8151 14.3127C21.9226 13.0962 22.0004 11.4299 22.0004 9.14851C22.0004 6.86712 21.9226 5.19907 21.8151 3.98669L21.815 3.98664Z" fill="black"/>
<path d="M18.1122 7.69142C18.0256 6.71232 17.5974 5.7948 16.9023 5.09974C16.2073 4.40473 15.2897 3.97639 14.3106 3.88985C13.0958 3.78242 11.4291 3.70508 9.14842 3.70508C6.8675 3.70508 5.20133 3.7812 3.9866 3.8877C3.0072 3.97425 2.08935 4.40286 1.39434 5.09834C0.699169 5.79382 0.271146 6.71183 0.185227 7.69139C0.0778024 8.90404 0 10.5703 0 12.8516C0 15.1329 0.0778063 16.8011 0.185227 18.0134C0.271472 18.9925 0.699798 19.9101 1.39481 20.6053C2.08998 21.3003 3.00755 21.7286 3.98664 21.8149C5.20145 21.9223 6.86821 22.0001 9.14846 22.0001C11.4289 22.0001 13.0959 21.9223 14.3107 21.8149H14.3108C15.2901 21.7285 16.2074 21.3001 16.9027 20.6051C17.5977 19.9101 18.026 18.9925 18.1124 18.0134C18.2198 16.7991 18.2972 15.1319 18.2972 12.8516C18.2972 10.5712 18.2189 8.90415 18.1124 7.69139L18.1122 7.69142ZM2.23939 7.87311C2.2822 7.37591 2.4992 6.9097 2.85186 6.55656C3.20467 6.20344 3.67058 5.986 4.16779 5.94255C5.49676 5.82485 7.17256 5.76546 9.1485 5.76546C11.1242 5.76546 12.8009 5.82469 14.1292 5.94255C14.6261 5.98598 15.0919 6.20298 15.4445 6.55561C15.7973 6.90842 16.0145 7.37402 16.058 7.87091C16.1753 9.19989 16.2347 10.8754 16.2347 12.8516C16.2347 14.7948 16.1771 16.4465 16.0628 17.7644V17.7645C15.3636 16.7949 14.6069 15.8682 13.7965 14.9895C13.4888 14.6612 13.0321 14.5168 12.5774 14.5168C12.1228 14.5168 11.6664 14.6629 11.3587 14.9895C11.2335 15.124 11.1086 15.2614 10.9839 15.4015H10.9841C10.759 15.6553 10.4335 15.7974 10.0942 15.7899C9.75504 15.7824 9.43615 15.626 9.22239 15.3625C8.69509 14.7082 8.13695 14.0575 7.5805 13.4602C7.18611 13.0386 6.60035 12.8538 6.01809 12.8517C5.43587 12.8496 4.85023 13.0386 4.45524 13.4602C3.65294 14.3222 2.84651 15.2945 2.13492 16.2296C2.08658 15.2314 2.06248 14.1021 2.06248 12.8517C2.06248 10.8756 2.12218 9.20027 2.23958 7.87102L2.23939 7.87311Z" fill="black"/>
<path d="M12.6974 11.4882C12.6974 12.2736 12.0605 12.9105 11.2751 12.9105C10.4896 12.9105 9.85284 12.2736 9.85284 11.4882C9.85284 10.7026 10.4896 10.0659 11.2751 10.0659C12.0605 10.0659 12.6974 10.7026 12.6974 11.4882Z" fill="black"/>
</svg>
