<svg width="22" height="22" viewBox="0 0 22 22" fill="none" xmlns="http://www.w3.org/2000/svg">
<path d="M20.9822 6.63931C20.774 6.38484 20.4733 6.22299 20.1263 6.22299H17.9054C18.183 7.03275 18.0442 7.93492 17.4891 8.6288L14.8288 12.0988C14.3429 12.7466 13.5797 13.1167 12.7699 13.1167C11.9602 13.1167 11.22 12.7466 10.711 12.0988L8.0506 8.6288C7.51857 7.93475 7.35655 7.03254 7.63428 6.22299H5.66784L5.15891 4.14106C5.04321 3.65517 4.60366 3.3313 4.09468 3.3313H1.08728C0.508938 3.3313 0 3.81719 0 4.41858C0 5.01997 0.485887 5.50585 1.08728 5.50585H3.23861L3.74755 7.56474C3.74755 7.58781 3.77063 7.61105 3.77063 7.63413L5.92197 16.1935C6.03767 16.6794 6.47721 17.0033 6.98619 17.0033H18.044C18.553 17.0033 18.9693 16.6564 19.1083 16.1935L21.1902 7.58786C21.2599 7.24076 21.1905 6.89381 20.9822 6.63934L20.9822 6.63931Z" fill="black"/>
<path d="M10.4102 20.08C10.4102 21.1405 9.5505 22.0001 8.49015 22.0001C7.42965 22.0001 6.57007 21.1405 6.57007 20.08C6.57007 19.0197 7.42969 18.1599 8.49015 18.1599C9.5505 18.1599 10.4102 19.0197 10.4102 20.08Z" fill="black"/>
<path d="M17.9518 20.08C17.9518 21.1405 17.0922 22.0001 16.0317 22.0001C14.9714 22.0001 14.1116 21.1405 14.1116 20.08C14.1116 19.0197 14.9714 18.1599 16.0317 18.1599C17.0922 18.1599 17.9518 19.0197 17.9518 20.08Z" fill="black"/>
<path d="M12.1453 10.9884C12.4691 11.4048 13.0705 11.4048 13.3944 10.9884L16.0779 7.5184C16.4712 7.00947 16.101 6.24602 15.4533 6.24602H14.0884V0.46263C14.0884 0.208152 13.8803 0 13.6258 0H11.8908C11.6363 0 11.4282 0.208165 11.4282 0.46263V6.24602H10.0633C9.4156 6.24602 9.04542 7.00943 9.43869 7.5184L12.1453 10.9884Z" fill="black"/>
</svg>
