<svg width="18" height="24" viewBox="0 0 18 24" fill="none" xmlns="http://www.w3.org/2000/svg">
<path d="M4.74355 15.411C4.49144 15.2598 4.23952 15.0833 3.9874 14.8816V14.9067C3.88666 15.7636 3.73529 16.8222 3.55896 17.2003C2.97932 18.3344 1.1142 22.2158 1.08904 22.2662C0.811794 22.8459 1.03859 23.5516 1.61841 23.8288C1.79492 23.9044 1.94611 23.9549 2.12244 23.9549C2.55088 23.9549 2.97932 23.7028 3.18099 23.2996C3.20613 23.2745 5.07127 19.393 5.6509 18.2589C5.8777 17.8053 6.00375 17.2003 6.12982 16.5451C5.75184 16.1923 5.34855 15.8646 5.02081 15.6378C4.94522 15.5371 4.8443 15.4615 4.74356 15.411L4.74355 15.411Z" fill="black"/>
<path d="M6.42311 0.000361606C7.8009 0.0233923 8.89919 1.15928 8.87615 2.53706C8.85294 3.91503 7.71723 5.01332 6.33944 4.9901C4.96148 4.96707 3.86319 3.83136 3.88641 2.4534C3.90944 1.07543 5.04515 -0.0228618 6.42311 0.000361606Z" fill="black"/>
<path d="M17.7234 15.2848L16.2364 12.4618C16.1104 12.235 15.8331 12.1594 15.6063 12.2602L14.4469 12.8651L14.1445 12.2098C14.0437 12.0333 13.8924 11.9075 13.716 11.857C13.6153 11.8319 13.4892 11.8065 13.3883 11.8319C13.3379 11.7311 13.2623 11.6553 13.1867 11.5797C12.4559 11.0001 11.3216 9.96671 11.0192 9.51296C10.9436 9.3869 10.8427 9.16012 10.7419 8.93332C10.2379 7.82431 9.28011 5.78286 7.163 5.78286C7.163 5.78286 6.02888 5.75772 5.67603 5.75772C3.28173 5.70727 1.71897 7.82451 1.341 8.58049C0.988161 9.33664 0.181545 11.7309 0.0303678 12.2603C-0.0956865 12.7392 0.181563 13.2433 0.660459 13.3693C0.736057 13.3945 0.811655 13.3945 0.912568 13.3945C1.31587 13.3945 1.66872 13.1423 1.79479 12.7392C1.94598 12.2352 2.72728 9.9416 3.00452 9.36196C3.08011 9.18545 3.35736 8.78232 3.76067 8.40418C3.35737 10.0928 3.50856 12.4115 3.58416 13.3945C3.63462 14.0246 4.74362 14.6798 5.37371 15.1083C6.4071 15.814 7.9948 17.427 8.32254 18.158C8.57465 18.7376 9.65833 21.8125 10.2128 23.1987C10.3893 23.6523 10.8429 23.9549 11.2965 23.9549C11.4477 23.9549 11.5737 23.9297 11.7249 23.8793C12.3299 23.6525 12.6322 22.972 12.3802 22.367C12.3046 22.1905 10.7923 17.9815 10.4647 17.2254C10.1875 16.5702 9.00292 15.1335 8.22161 14.3018C8.19647 14.2766 8.19647 14.2766 8.17115 14.2513C8.14601 13.848 8.17115 10.8992 8.62473 8.83251C8.77592 9.10976 8.92712 9.41215 9.07831 9.71473C9.2295 10.0171 9.33041 10.2692 9.4816 10.496C9.96052 11.2522 11.2458 12.3611 11.8255 12.8399C11.7499 13.0164 11.775 13.2431 11.8506 13.4195L12.1783 14.0496L11.0188 14.6545C10.792 14.7806 10.7164 15.0578 10.8172 15.2846L12.279 18.1327C12.4051 18.3595 12.6823 18.4351 12.9091 18.3343L17.4962 15.9651C17.7486 15.7886 17.8242 15.5114 17.7233 15.2846L17.7234 15.2848ZM12.3298 13.1424C12.4305 13.1675 12.5063 13.1928 12.6071 13.1928C12.8843 13.1928 13.1364 13.0668 13.3128 12.8651C13.4388 12.7139 13.4893 12.5374 13.5144 12.3611H13.5395C13.59 12.3862 13.6151 12.4115 13.6403 12.4618L13.968 13.0919L12.6575 13.7976L12.3298 13.1424Z" fill="black"/>
</svg>
