<svg width="23" height="24" viewBox="0 0 23 24" fill="none" xmlns="http://www.w3.org/2000/svg">
<path d="M22.537 2.32421C22.5105 1.83278 22.3034 1.36849 21.9554 1.02049C21.6074 0.672451 21.1431 0.465369 20.6517 0.43888L12.0026 0L0.730156 11.2724C0.262552 11.74 0 12.3744 0 13.0355C0 13.6969 0.262529 14.331 0.730156 14.7989L8.21184 22.2806C8.67945 22.7479 9.31383 23.0107 9.97496 23.0107C10.6363 23.0107 11.2705 22.748 11.7383 22.2806L23.0004 10.9734L22.537 2.32421ZM18.8661 7.12252H18.8659C18.468 7.52555 17.926 7.75355 17.3595 7.756C16.793 7.75845 16.2491 7.53511 15.8476 7.1354C15.4464 6.73571 15.2206 6.19263 15.2206 5.62613C15.2206 5.05963 15.4464 4.51656 15.8476 4.11685C16.2491 3.71738 16.7931 3.49403 17.3595 3.49625C17.926 3.4987 18.4679 3.72672 18.8659 4.12973C19.2596 4.52831 19.4802 5.06607 19.4802 5.62607C19.4802 6.1863 19.2595 6.72384 18.8659 7.12241L18.8661 7.12252Z" fill="black"/>
</svg>
