<svg width="22" height="20" viewBox="0 0 22 20" fill="none" xmlns="http://www.w3.org/2000/svg">
<path d="M20.2186 7.17136H19.5016C18.8075 3.09992 15.245 0 10.9885 0C6.73191 0 3.19249 3.09984 2.47536 7.17136H1.78131C0.809711 7.17136 0 7.98111 0 8.95267V11.9368C0 12.4227 0.185088 12.8621 0.532027 13.2092C0.878962 13.533 1.31852 13.7181 1.78115 13.7181H3.3774C3.84002 13.7181 4.2102 13.3479 4.2102 12.8853V8.62876C4.2102 4.90428 7.24063 1.87381 10.9652 1.87381C14.6897 1.87381 17.7201 4.90424 17.7201 8.62876V14.4353C17.7201 15.9621 16.471 17.2112 14.9441 17.2112H13.4173C13.3016 16.7253 12.8853 16.3784 12.3531 16.3784L9.60033 16.3786C8.97568 16.3786 8.48996 16.8875 8.48996 17.4889V18.2523C8.48996 18.877 8.9989 19.3627 9.60033 19.3627H12.3996C12.9085 19.3627 13.3248 18.9925 13.4638 18.5299H14.9906C17.2346 18.5299 19.0853 16.7024 19.0853 14.4352V13.6949H20.2189C20.6815 13.6949 21.1441 13.5098 21.468 13.186C21.8149 12.839 22 12.3995 22 11.9136L21.9998 8.95267C21.9998 7.98107 21.2133 7.19457 20.2185 7.17152L20.2186 7.17136Z" fill="black"/>
<path d="M9.04517 12.6774C9.32272 12.8394 9.6235 12.9549 9.94737 13.0476V13.811C9.94737 13.996 10.0861 14.1348 10.2712 14.1348H11.7287C11.9138 14.1348 12.0525 13.996 12.0525 13.811V13.0476C12.3764 12.9551 12.6772 12.8394 12.9547 12.6774L13.4868 13.2094C13.6255 13.3482 13.8337 13.3482 13.9494 13.2094L14.9673 12.1915C15.1061 12.0527 15.1061 11.8446 14.9673 11.7289L14.4816 11.1738C14.6436 10.8962 14.7591 10.5954 14.8518 10.2716H15.6152C15.8002 10.2716 15.939 10.1328 15.939 9.94769V8.49025C15.939 8.30516 15.8002 8.16639 15.6152 8.16639H14.8518C14.7593 7.84253 14.6436 7.54174 14.4816 7.26419L15.0136 6.73216C15.1524 6.59338 15.1524 6.38522 15.0136 6.26953L13.9957 5.25162C13.8569 5.11284 13.6488 5.11284 13.5331 5.25162L13.001 5.78365C12.7235 5.62163 12.4227 5.5061 12.0988 5.41348V4.60389C12.0988 4.4188 11.9601 4.28003 11.775 4.28003H10.3175C10.1325 4.28003 9.99368 4.4188 9.99368 4.60389V5.36729C9.66982 5.45975 9.36904 5.57545 9.09148 5.73746L8.55945 5.20544C8.42067 5.06666 8.21251 5.06666 8.09682 5.20544L7.07891 6.22335C6.94013 6.36212 6.94013 6.57028 7.07891 6.68597L7.61094 7.218C7.44893 7.49555 7.33339 7.79634 7.24077 8.1202H6.47736C6.29227 8.1202 6.1535 8.25898 6.1535 8.44406V9.90151C6.1535 10.0866 6.29228 10.2254 6.47736 10.2254H7.24077C7.33323 10.5492 7.44893 10.85 7.61094 11.1276L7.07891 11.6596C6.94013 11.7984 6.94013 12.0065 7.07891 12.1222L8.09682 13.1401C8.2356 13.2789 8.44376 13.2789 8.55945 13.1401L9.04517 12.6774ZM11.0116 7.33357C12.0526 7.33357 12.8854 8.16637 12.8854 9.20733C12.8854 10.2483 12.0526 11.0811 11.0116 11.0811C9.97063 11.0811 9.13783 10.2483 9.13783 9.20733C9.13783 8.16637 9.97063 7.33357 11.0116 7.33357Z" fill="black"/>
</svg>
