<svg width="22" height="22" viewBox="0 0 22 22" fill="none" xmlns="http://www.w3.org/2000/svg">
<path d="M19.4009 16.5584C19.4009 16.061 19.263 15.6667 18.9871 15.3755C18.7172 15.0782 18.2553 14.8052 17.6017 14.5564C16.9479 14.3078 16.3842 14.062 15.9104 13.8194C15.4366 13.5707 15.0287 13.2886 14.6868 12.9732C14.3509 12.6517 14.0871 12.2755 13.8951 11.8448C13.7093 11.4141 13.6163 10.9015 13.6163 10.307C13.6163 9.28173 13.9402 8.44164 14.5879 7.7865C15.1624 7.20539 15.9042 6.839 16.8135 6.68742C17.0149 6.65394 17.1699 6.48283 17.1699 6.27654V5.09438C17.1699 4.87242 17.3477 4.69263 17.567 4.69263H18.2121C18.4314 4.69263 18.6092 4.87242 18.6092 5.09438V6.31825C18.6092 6.51835 18.7555 6.68621 18.9491 6.72758C19.8496 6.92055 20.5669 7.34927 21.1012 8.0139C21.6316 8.66845 21.9275 9.49612 21.9889 10.4969C22.0022 10.7183 21.823 10.8985 21.6036 10.8985H19.798C19.5787 10.8985 19.4035 10.7181 19.384 10.4971C19.3373 9.96762 19.193 9.55845 18.9511 9.26967C18.6572 8.90573 18.2613 8.72376 17.7635 8.72376C17.2717 8.72376 16.8909 8.8662 16.621 9.15138C16.3512 9.43038 16.2162 9.81863 16.2162 10.316C16.2162 10.7772 16.3481 11.1471 16.612 11.4263C16.876 11.7053 17.3647 11.9905 18.0785 12.2816C18.7981 12.5728 19.3889 12.8489 19.8507 13.1097C20.3124 13.3644 20.7024 13.6556 21.0202 13.9833C21.3381 14.3047 21.5809 14.6747 21.7489 15.0934C21.917 15.5059 22.0007 15.9882 22.0007 16.5403C22.0007 17.5715 21.6829 18.4086 21.0473 19.0517C20.4806 19.6247 19.7236 19.9882 18.776 20.1421C18.5749 20.1748 18.4202 20.3458 18.4202 20.5519V21.5981C18.4202 21.8201 18.2425 21.9999 18.0231 21.9999H17.387C17.1677 21.9999 16.9899 21.8201 16.9899 21.5981V20.5592C16.9899 20.3538 16.8365 20.1831 16.6362 20.1501C15.576 19.9756 14.7403 19.5518 14.1291 18.8787C13.5313 18.2092 13.1995 17.3453 13.1337 16.2867C13.1199 16.0652 13.2993 15.8851 13.5186 15.8851H15.3242C15.5436 15.8851 15.7185 16.0655 15.7403 16.2862C15.7929 16.816 15.9544 17.2373 16.2252 17.5502C16.5671 17.9324 17.0558 18.1235 17.6916 18.1235C18.2194 18.1235 18.6361 17.984 18.9421 17.7048C19.2479 17.4198 19.4009 17.0376 19.4009 16.5583L19.4009 16.5584Z" fill="black"/>
<path d="M2.05987 2.78437C2.05987 2.39703 2.37033 2.083 2.75334 2.083H12.076C12.459 2.083 12.7695 2.39703 12.7695 2.78437V7.91926C12.982 7.51052 13.2574 7.1308 13.5984 6.78594C13.9677 6.41255 14.3803 6.10937 14.8291 5.87193V0.52079C14.8291 0.233115 14.5984 0 14.3142 0H0.514917C0.230651 0 0 0.233115 0 0.52079V16.8738C0 17.1615 0.230635 17.3946 0.514917 17.3946H11.8763C11.7718 16.9133 11.7221 16.4082 11.7221 15.8854V15.3114H2.75296C2.36996 15.3114 2.05948 14.9974 2.05948 14.6101L2.05987 2.78437Z" fill="black"/>
<path d="M4.91601 7.60327C4.53301 7.60327 4.22253 7.9173 4.22253 8.3048V8.9851C4.22253 9.37244 4.53299 9.68647 4.91601 9.68647H10.0168C10.3998 9.68647 10.7102 9.37245 10.7102 8.9851V8.3048C10.7102 7.91731 10.3998 7.60327 10.0168 7.60327H4.91601Z" fill="black"/>
<path d="M4.22241 11.6378C4.22241 11.2503 4.53287 10.9363 4.91589 10.9363H10.0167C10.3996 10.9363 10.7101 11.2503 10.7101 11.6378V12.3181C10.7101 12.7054 10.3997 13.0196 10.0167 13.0196H4.91589C4.53289 13.0196 4.22241 12.7055 4.22241 12.3181V11.6378Z" fill="black"/>
<path d="M4.91601 4.37476C4.53301 4.37476 4.22253 4.68878 4.22253 5.07613V5.75655C4.22253 6.14388 4.53299 6.45792 4.91601 6.45792H10.0168C10.3998 6.45792 10.7102 6.14389 10.7102 5.75655V5.07613C10.7102 4.68879 10.3998 4.37476 10.0168 4.37476H4.91601Z" fill="black"/>
</svg>
